<svg width="32" height="33" viewBox="0 0 32 33" fill="none" xmlns="http://www.w3.org/2000/svg">
<g id="mingcute:bank-line" clip-path="url(#clip0_76_427)">
<g id="Group">
<path id="Vector" d="M16.8934 3.45589L28.2267 9.78923C28.5594 9.95532 28.8392 10.2109 29.0347 10.5272C29.2302 10.8435 29.3336 11.208 29.3334 11.5799V13.4999C29.3334 14.4199 28.5867 15.1666 27.6667 15.1666H26.6667V25.8332H28.0001C28.3537 25.8332 28.6928 25.9737 28.9429 26.2238C29.1929 26.4738 29.3334 26.8129 29.3334 27.1666C29.3334 27.5202 29.1929 27.8593 28.9429 28.1094C28.6928 28.3594 28.3537 28.4999 28.0001 28.4999H4.00008C3.64646 28.4999 3.30732 28.3594 3.05727 28.1094C2.80722 27.8593 2.66675 27.5202 2.66675 27.1666C2.66675 26.8129 2.80722 26.4738 3.05727 26.2238C3.30732 25.9737 3.64646 25.8332 4.00008 25.8332H5.33341V15.1666H4.33341C3.41341 15.1666 2.66675 14.4199 2.66675 13.4999V11.5799C2.66675 10.8839 3.02675 10.2439 3.60808 9.88123L15.1054 3.45589C15.3832 3.31696 15.6895 3.24463 16.0001 3.24463C16.3107 3.24463 16.6156 3.31696 16.8934 3.45589ZM24.0001 15.1666H8.00008V25.8332H12.0001V17.8332H14.6667V25.8332H17.3334V17.8332H20.0001V25.8332H24.0001V15.1666ZM16.0001 5.99056L5.33341 11.9906V12.4999H26.6667V11.9906L16.0001 5.99056ZM16.0001 8.49989C16.3537 8.49989 16.6928 8.64037 16.9429 8.89042C17.1929 9.14047 17.3334 9.47961 17.3334 9.83323C17.3334 10.1869 17.1929 10.526 16.9429 10.776C16.6928 11.0261 16.3537 11.1666 16.0001 11.1666C15.6465 11.1666 15.3073 11.0261 15.0573 10.776C14.8072 10.526 14.6667 10.1869 14.6667 9.83323C14.6667 9.47961 14.8072 9.14047 15.0573 8.89042C15.3073 8.64037 15.6465 8.49989 16.0001 8.49989Z" fill="black"/>
</g>
</g>
<defs>
<clipPath id="clip0_76_427">
<rect width="32" height="32" fill="white" transform="translate(0 0.5)"/>
</clipPath>
</defs>
</svg>
