<svg width="36" height="25" viewBox="0 0 36 25" fill="none" xmlns="http://www.w3.org/2000/svg">
<g id="fontisto:paypal" clip-path="url(#clip0_77_438)">
<path id="Vector" d="M33.6 24.5H2.4C1.76348 24.5 1.15303 24.2471 0.702944 23.7971C0.252856 23.347 0 22.7365 0 22.1L0 2.9C0 2.26348 0.252856 1.65303 0.702944 1.20294C1.15303 0.752856 1.76348 0.5 2.4 0.5L33.6 0.5C34.2365 0.5 34.847 0.752856 35.2971 1.20294C35.7471 1.65303 36 2.26348 36 2.9V22.1C36 22.7365 35.7471 23.347 35.2971 23.7971C34.847 24.2471 34.2365 24.5 33.6 24.5ZM14.032 10.825C14.0046 10.8254 13.9777 10.8318 13.9531 10.8439C13.9285 10.8561 13.907 10.8735 13.89 10.895C13.8506 10.9351 13.8281 10.9888 13.827 11.045C13.827 11.066 13.925 11.365 14.135 11.978L14.589 13.304L14.8 13.922C15.0367 14.6153 15.1603 14.984 15.171 15.028C14.7054 15.6044 14.2845 16.2155 13.912 16.856L13.874 16.926L13.872 16.951C13.872 17.051 13.953 17.133 14.054 17.133L14.081 17.131H14.08H15.298C15.3548 17.1307 15.4105 17.1159 15.46 17.0881C15.5095 17.0603 15.5512 17.0203 15.581 16.972L15.582 16.971L19.614 11.152C19.6352 11.1241 19.6468 11.0901 19.647 11.055L19.646 11.04V11.041C19.6446 10.9849 19.6221 10.9313 19.583 10.891C19.5662 10.8696 19.5448 10.8522 19.5204 10.8401C19.496 10.828 19.4692 10.8214 19.442 10.821H18.223C18.1661 10.8214 18.1102 10.8361 18.0605 10.8639C18.0109 10.8917 17.9691 10.9317 17.939 10.98L17.938 10.981L16.258 13.447L15.563 11.075C15.5452 11.0027 15.5037 10.9385 15.4452 10.8925C15.3867 10.8464 15.3144 10.8213 15.24 10.821L15.214 10.822H15.215L14.032 10.825ZM28.01 10.714H27.984C27.226 10.714 26.545 11.043 26.075 11.565L26.073 11.567C25.559 12.0986 25.272 12.8095 25.273 13.549V13.576V13.575C25.271 13.604 25.271 13.639 25.271 13.673C25.271 14.21 25.48 14.699 25.82 15.062L25.819 15.061C26.0124 15.2494 26.2426 15.3958 26.4952 15.4911C26.7478 15.5865 27.0174 15.6286 27.287 15.615H27.282C27.619 15.611 27.939 15.542 28.231 15.418L28.215 15.424C28.51 15.313 28.76 15.14 28.957 14.92L28.959 14.918C28.949 14.975 28.938 15.023 28.925 15.069L28.927 15.059C28.9091 15.1202 28.8984 15.1833 28.895 15.247V15.249C28.895 15.417 28.964 15.502 29.101 15.502H30.192C30.2346 15.5058 30.2775 15.5011 30.3183 15.488C30.359 15.475 30.3967 15.4539 30.4291 15.426C30.4616 15.3981 30.4881 15.364 30.5072 15.3257C30.5262 15.2874 30.5374 15.2457 30.54 15.203V15.202L31.188 11.075C31.1941 11.0439 31.1931 11.0117 31.1849 10.9811C31.1768 10.9504 31.1618 10.922 31.141 10.898C31.123 10.8732 31.0994 10.8531 31.0721 10.8391C31.0448 10.8252 31.0146 10.818 30.984 10.818H29.781C29.634 10.818 29.541 10.993 29.511 11.34C29.335 11.1141 29.1035 10.9377 28.8391 10.8278C28.5746 10.718 28.2863 10.6784 28.002 10.713L28.01 10.712V10.714ZM10.047 10.714H10.019C9.262 10.714 8.581 11.043 8.113 11.565L8.111 11.567C7.59696 12.0986 7.31003 12.8095 7.311 13.549V13.576V13.575C7.29775 13.8468 7.33945 14.1185 7.43361 14.3738C7.52777 14.6292 7.67245 14.8629 7.859 15.061L7.858 15.06C8.212 15.404 8.696 15.616 9.23 15.616L9.326 15.614H9.321C9.653 15.609 9.968 15.54 10.255 15.417L10.239 15.423C10.538 15.309 10.792 15.137 10.997 14.918L10.998 14.917C10.961 15.015 10.938 15.129 10.935 15.247V15.249C10.935 15.417 11.005 15.502 11.141 15.502H12.231C12.2736 15.5058 12.3165 15.5011 12.3573 15.488C12.398 15.475 12.4357 15.4539 12.4681 15.426C12.5006 15.3981 12.5271 15.364 12.5462 15.3257C12.5652 15.2874 12.5764 15.2457 12.579 15.203V15.202L13.228 11.075C13.2334 11.0441 13.232 11.0124 13.2237 10.9821C13.2154 10.9518 13.2005 10.9238 13.18 10.9C13.162 10.8752 13.1384 10.8551 13.1111 10.8411C13.0838 10.8272 13.0536 10.82 13.023 10.82H11.82C11.673 10.82 11.58 10.995 11.551 11.342C11.3731 11.1179 11.1413 10.9428 10.8771 10.8329C10.613 10.7231 10.3253 10.6822 10.041 10.714L10.049 10.713L10.047 10.714ZM32.612 8.5L32.596 8.499C32.5483 8.49883 32.5022 8.51664 32.467 8.54888C32.4318 8.58112 32.41 8.62543 32.406 8.673L31.378 15.252C31.3696 15.2837 31.3695 15.317 31.3777 15.3487C31.3859 15.3804 31.4022 15.4094 31.425 15.433C31.4439 15.4554 31.4675 15.4734 31.4941 15.4856C31.5207 15.4979 31.5497 15.5042 31.579 15.504H32.629L32.661 15.506C32.7406 15.506 32.8169 15.4744 32.8731 15.4181C32.9294 15.3619 32.961 15.2856 32.961 15.206V15.204L33.987 8.739L33.988 8.717C33.9879 8.65998 33.9693 8.60453 33.935 8.559V8.56C33.917 8.54084 33.8954 8.52555 33.8713 8.51506C33.8472 8.50458 33.8213 8.49911 33.795 8.499L33.78 8.5H32.612ZM20.942 8.5C20.8991 8.49437 20.8554 8.49785 20.814 8.51022C20.7725 8.52258 20.7341 8.54356 20.7012 8.57177C20.6684 8.59998 20.6419 8.6348 20.6234 8.67395C20.6049 8.71311 20.5949 8.75572 20.594 8.799L19.567 15.251C19.5617 15.2817 19.5632 15.3131 19.5713 15.3432C19.5794 15.3732 19.594 15.4012 19.614 15.425C19.6317 15.4499 19.6551 15.4701 19.6822 15.4841C19.7094 15.498 19.7395 15.5052 19.77 15.505H21.075C21.1336 15.505 21.1903 15.4846 21.2355 15.4474C21.2807 15.4102 21.3117 15.3584 21.323 15.301V15.299L21.608 13.465C21.6165 13.3847 21.6564 13.311 21.719 13.26C21.7872 13.2049 21.8701 13.1693 21.957 13.157H21.96C22.041 13.142 22.134 13.134 22.229 13.133C22.313 13.133 22.414 13.138 22.53 13.149C22.6568 13.1636 22.7844 13.1703 22.912 13.169C23.6447 13.1702 24.3506 12.894 24.888 12.396L24.886 12.398C25.154 12.1138 25.3609 11.7778 25.494 11.4106C25.6271 11.0434 25.6836 10.6529 25.66 10.263V10.271C25.6815 10.0132 25.6373 9.75411 25.5315 9.51802C25.4257 9.28193 25.2618 9.07652 25.055 8.921L25.051 8.918C24.5738 8.61625 24.0148 8.46986 23.451 8.499H23.457L20.942 8.5ZM2.96 8.5C2.91817 8.49551 2.87586 8.49987 2.83582 8.5128C2.79579 8.52573 2.75892 8.54693 2.72761 8.57503C2.6963 8.60314 2.67125 8.63751 2.65409 8.67592C2.63693 8.71434 2.62804 8.75593 2.628 8.798V8.8L1.6 15.252C1.59464 15.2827 1.59607 15.3142 1.60419 15.3442C1.61231 15.3743 1.62692 15.4022 1.647 15.426C1.66467 15.4509 1.68807 15.4711 1.71522 15.4851C1.74238 15.499 1.77248 15.5062 1.803 15.506H3.007C3.04992 15.5116 3.09355 15.5082 3.13504 15.4958C3.17653 15.4834 3.21495 15.4624 3.24779 15.4342C3.28062 15.406 3.30714 15.3712 3.32562 15.332C3.34409 15.2929 3.3541 15.2503 3.355 15.207L3.64 13.468C3.64866 13.388 3.68811 13.3145 3.75 13.263C3.81823 13.2079 3.90114 13.1723 3.988 13.16H3.991C4.07949 13.1444 4.16915 13.1364 4.259 13.136H4.26C4.344 13.136 4.444 13.141 4.56 13.152C4.68646 13.1665 4.81371 13.1732 4.941 13.172C5.704 13.172 6.398 12.879 6.918 12.399L6.916 12.401C7.18386 12.1168 7.39071 11.7807 7.52382 11.4136C7.65694 11.0464 7.71349 10.6558 7.69 10.266V10.274C7.71152 10.0162 7.66731 9.75711 7.56151 9.52102C7.4557 9.28492 7.29176 9.07952 7.085 8.924L7.081 8.921C6.60589 8.62036 6.04957 8.47369 5.488 8.501H5.494L2.96 8.5ZM27.944 14.335L27.896 14.336C27.6405 14.3362 27.3932 14.2459 27.198 14.081L27.2 14.082C27.1098 13.9989 27.0377 13.8979 26.9885 13.7855C26.9393 13.6731 26.9139 13.5517 26.914 13.429L26.915 13.384V13.357C26.915 12.983 27.066 12.644 27.311 12.398C27.552 12.151 27.888 11.998 28.26 11.998H28.293H28.291L28.325 11.997C28.594 11.997 28.839 12.096 29.027 12.259L29.026 12.258C29.1189 12.344 29.1929 12.4482 29.2435 12.5642C29.2941 12.6802 29.3202 12.8054 29.32 12.932L29.319 12.98V12.978V13.002C29.319 13.371 29.166 13.705 28.919 13.942C28.7942 14.0663 28.6462 14.1648 28.4834 14.2319C28.3206 14.299 28.1461 14.3333 27.97 14.333H27.945L27.944 14.335ZM9.965 14.335L9.915 14.336C9.653 14.336 9.412 14.24 9.228 14.081L9.229 14.082C9.14106 13.9979 9.07109 13.8969 9.02331 13.785C8.97553 13.6731 8.95093 13.5527 8.951 13.431L8.952 13.384V13.357C8.952 12.983 9.103 12.644 9.348 12.398C9.589 12.151 9.924 11.998 10.296 11.998H10.331H10.329L10.363 11.997C10.632 11.997 10.877 12.096 11.065 12.259L11.064 12.258C11.1566 12.3439 11.2304 12.4481 11.2809 12.5639C11.3313 12.6797 11.3572 12.8047 11.357 12.931L11.356 12.98V12.978V13.013C11.356 13.382 11.203 13.714 10.956 13.951C10.6997 14.1977 10.3577 14.3353 10.002 14.335H9.965ZM21.872 11.775L22.141 10.084C22.1431 10.0591 22.1502 10.0349 22.1617 10.0127C22.1732 9.99052 22.189 9.97084 22.2081 9.95477C22.2272 9.9387 22.2494 9.92656 22.2732 9.91905C22.297 9.91154 22.3221 9.9088 22.347 9.911H22.631L22.692 9.91C22.865 9.91 23.036 9.922 23.203 9.945L23.184 9.943C23.339 9.971 23.474 10.041 23.58 10.141C23.6404 10.1981 23.6885 10.2669 23.7214 10.3433C23.7542 10.4196 23.7711 10.5019 23.771 10.585L23.77 10.623V10.621C23.791 10.7881 23.7704 10.9577 23.7101 11.1149C23.6497 11.2721 23.5514 11.4119 23.424 11.522L23.423 11.523C23.1044 11.7049 22.739 11.7884 22.373 11.763H22.379L21.874 11.779L21.872 11.775ZM3.893 11.775L4.162 10.084C4.16401 10.0591 4.17095 10.0348 4.18243 10.0125C4.1939 9.99028 4.20968 9.97054 4.22884 9.95445C4.24801 9.93835 4.27018 9.92622 4.29406 9.91877C4.31795 9.91131 4.34308 9.90867 4.368 9.911H4.667C4.98716 9.88754 5.30766 9.95185 5.594 10.097L5.584 10.092C5.773 10.213 5.837 10.47 5.774 10.858C5.76917 11.0029 5.72959 11.1444 5.65858 11.2708C5.58757 11.3971 5.48723 11.5046 5.366 11.584L5.363 11.586C4.88903 11.7605 4.38152 11.8248 3.879 11.774L3.893 11.775Z" fill="#0078E7"/>
</g>
<defs>
<clipPath id="clip0_77_438">
<rect width="36" height="24" fill="white" transform="translate(0 0.5)"/>
</clipPath>
</defs>
</svg>
