<?xml version="1.0" standalone="no"?>
<!DOCTYPE svg PUBLIC "-//W3C//DTD SVG 20010904//EN"
 "http://www.w3.org/TR/2001/REC-SVG-20010904/DTD/svg10.dtd">
<svg version="1.0" xmlns="http://www.w3.org/2000/svg"
 width="167.000000pt" height="73.000000pt" viewBox="0 0 167.000000 73.000000"
 preserveAspectRatio="xMidYMid meet">
<metadata>
Created by potrace 1.10, written by Peter Selinger 2001-2011
</metadata>
<g transform="translate(0.000000,73.000000) scale(0.100000,-0.100000)"
fill="#000000" stroke="none">
<path d="M420 542 c-52 -28 -90 -108 -97 -205 -4 -49 -2 -77 4 -77 6 0 13 31
16 69 7 79 27 135 64 174 27 27 76 37 88 17 4 -7 12 -7 25 0 31 17 65 11 89
-14 34 -36 61 -119 61 -186 0 -49 3 -60 16 -60 14 0 15 9 9 67 -9 88 -37 162
-75 198 -28 26 -38 29 -105 24 -11 0 -29 2 -40 5 -12 4 -35 -1 -55 -12z"/>
<path d="M557 513 c-3 -5 5 -21 18 -33 33 -31 55 -107 55 -187 0 -35 4 -63 10
-63 14 0 13 120 -1 175 -12 47 -71 126 -82 108z"/>
<path d="M422 487 c-33 -35 -51 -88 -58 -176 -6 -71 -5 -81 10 -81 13 0 16 12
16 80 0 86 14 133 49 164 21 20 27 36 13 36 -5 0 -18 -10 -30 -23z"/>
<path d="M458 473 c-8 -10 -20 -31 -27 -48 -17 -37 -28 -225 -14 -225 6 0 12
41 15 94 6 118 29 171 72 171 44 0 64 -36 77 -135 5 -46 8 -94 4 -107 -4 -17
-1 -23 11 -23 15 0 16 10 11 88 -7 99 -21 147 -50 180 -25 27 -78 30 -99 5z"/>
<path d="M760 365 l0 -120 30 0 c28 0 30 2 30 40 l0 40 58 0 c77 0 92 13 92
80 0 30 -5 57 -12 63 -7 5 -55 12 -106 14 l-92 3 0 -120z m150 40 c0 -23 -4
-25 -45 -25 -41 0 -45 2 -45 25 0 23 4 25 45 25 41 0 45 -2 45 -25z"/>
<path d="M1200 373 l5 -118 38 -3 c34 -3 37 -1 37 22 0 17 -6 26 -16 26 -13 0
-15 14 -12 95 l3 95 -30 0 -30 0 5 -117z"/>
<path d="M1300 470 c0 -16 7 -20 33 -20 26 0 33 4 34 20 1 16 -4 20 -33 20
-27 0 -34 -4 -34 -20z"/>
<path d="M485 440 c-8 -12 20 -24 35 -15 5 3 10 10 10 16 0 12 -37 12 -45 -1z"/>
<path d="M998 348 c3 -61 8 -86 20 -95 22 -18 57 -16 76 3 9 8 16 11 16 5 0
-6 12 -11 28 -11 l27 0 0 90 0 90 -27 0 c-26 0 -27 -2 -30 -67 -3 -65 -4 -68
-28 -68 -24 0 -25 3 -28 68 -3 66 -4 67 -30 67 l-27 0 3 -82z"/>
<path d="M1300 341 l0 -89 30 -4 30 -5 0 94 0 93 -30 0 -30 0 0 -89z"/>
<path d="M469 394 c-18 -21 -27 -214 -10 -214 7 0 11 31 11 90 l0 90 30 -6
c22 -5 30 -3 31 7 0 8 5 1 10 -16 5 -16 7 -61 3 -99 -5 -53 -3 -67 7 -64 18 6
24 133 7 183 -11 34 -18 40 -44 43 -20 2 -36 -3 -45 -14z"/>
<path d="M500 250 c0 -47 4 -80 10 -80 6 0 10 33 10 80 0 47 -4 80 -10 80 -6
0 -10 -33 -10 -80z"/>
</g>
</svg>
