<svg width="120" height="44" viewBox="0 0 120 44" fill="none" xmlns="http://www.w3.org/2000/svg">
<g id="asset 10" clip-path="url(#clip0_2_152)">
<path id="Vector" d="M34.0113 20.9876C34.0472 20.9876 34.0472 20.9876 34.0113 20.9876V20.9876ZM1.41111 20.7727C1.37503 20.8086 1.41111 20.8085 1.44705 20.8085C1.48313 20.8085 1.51921 20.8086 1.51921 20.8445C2.20363 21.0237 2.92398 21.2387 3.57231 21.4179C3.60839 21.4179 3.60839 21.4538 3.64447 21.4179C2.88803 21.2387 2.16754 20.9877 1.41111 20.7727ZM44.4577 26.5075C42.4765 26.1849 37.4693 26.1849 34.4074 26.2207C34.2273 26.149 34.0833 26.0773 33.9031 25.9698C32.6063 25.3605 31.2735 24.7512 29.9767 24.142C30.1929 23.9269 30.4089 23.7478 30.6612 23.5327C32.6063 24.2494 35.6322 25.2888 37.6134 25.9698C37.7575 26.0057 38.0457 25.7548 38.1538 25.3605C38.2619 24.9663 38.2259 24.6078 38.0816 24.5362C38.0816 24.5362 33.615 22.995 31.9219 22.3857C32.8226 21.5973 33.7591 20.8445 34.6596 20.056C35.5602 19.2676 36.4968 18.5148 37.3974 17.7621C37.8657 17.3679 38.3339 17.0093 38.8021 16.6151C39.7388 15.8625 40.6754 15.1097 41.6839 14.4287C41.9361 14.2495 42.1882 14.0704 42.4403 13.927C42.6205 13.8194 42.7647 13.712 42.9447 13.6403C43.0528 13.5685 43.1608 13.5327 43.269 13.4969C43.269 13.461 43.2329 13.4969 43.269 13.461C43.269 13.461 43.3049 13.4251 43.341 13.4251C43.341 13.3534 43.3769 13.2458 43.341 13.1742C43.2688 13.1742 43.2329 13.2101 43.1608 13.2101V13.1742C42.9087 13.3175 42.6566 13.4251 42.4044 13.5684C42.3684 13.6043 42.2963 13.6043 42.2603 13.6402C42.2603 13.6402 42.2243 13.6402 42.2243 13.6761L41.1436 14.2136C40.8194 14.3929 40.4592 14.5363 40.135 14.7155C39.8108 14.8946 39.4866 15.0379 39.1265 15.2173C37.7936 15.934 36.4968 16.615 35.2 17.3318C35.344 17.2243 35.4882 17.081 35.6322 17.0093C35.8123 16.9018 35.9564 16.8301 36.1365 16.7225C37.1452 16.1849 38.1177 15.6115 39.1263 15.074C39.8108 14.7155 40.4592 14.357 41.1436 13.9986C41.72 13.7118 42.3324 13.3893 42.9448 13.1025C43.0168 13.0666 43.1248 12.9949 43.2329 13.0308C43.2329 13.0308 43.269 13.0308 43.269 13.0668C43.3049 13.1027 43.341 13.1027 43.3769 13.1386C43.413 13.2101 43.4491 13.3536 43.4131 13.461C43.4131 13.4969 43.3769 13.4968 43.3409 13.5327L43.3049 13.5686C43.269 13.6045 43.2329 13.6045 43.2329 13.6045C43.0528 13.712 42.9087 13.7836 42.7286 13.8912C42.4044 14.1063 42.0801 14.3213 41.7919 14.5364L41.4679 14.7514C40.8524 15.1853 40.2516 15.6395 39.6666 16.1134L38.4779 17.0812C38.4058 17.1528 38.2979 17.2245 38.2258 17.2963C37.3613 18.013 36.5328 18.7657 35.6683 19.4826C35.0919 19.9843 34.5514 20.4503 33.9752 20.9521C35.344 19.8051 36.7128 18.694 38.0818 17.583C36.9651 18.5148 35.8483 19.4467 34.7677 20.4144L35.2 20.0919C34.7677 20.5219 34.2993 20.9161 33.8671 21.3463C33.507 21.6689 33.1827 21.9556 32.8585 22.2782C32.7452 22.355 32.6475 22.4523 32.5703 22.5649L32.5344 22.6008C32.6784 22.4932 32.7865 22.3859 32.8946 22.3142C33.507 21.8122 34.0832 21.2747 34.6957 20.7728C35.164 20.3786 35.6683 19.9485 36.1365 19.5544C36.3887 19.3392 36.6408 19.1601 36.857 18.945L36.8929 18.9091L36.9651 18.8373C37.4334 18.4431 37.8656 18.0846 38.3339 17.6905C39.0543 17.0812 39.8108 16.5077 40.5673 15.9341C40.9635 15.6475 41.3237 15.3607 41.72 15.074C41.8641 14.9664 41.9721 14.8949 42.1162 14.7873C42.5124 14.5005 42.9086 14.2497 43.341 14.0347C43.485 13.9629 43.6291 13.8912 43.7372 13.7479C43.8094 13.6045 43.8813 13.4253 43.8453 13.2102C43.8092 13.031 43.7372 12.8877 43.5931 12.816C43.6653 12.8877 43.7372 12.9594 43.7733 13.0669C43.8092 13.1745 43.8454 13.2819 43.8454 13.4254C43.8454 13.4613 43.8092 13.5329 43.8092 13.5687C43.7733 13.6762 43.7012 13.7479 43.6292 13.8195C43.5931 13.8554 43.5571 13.8913 43.485 13.9271C43.3771 13.9989 43.3049 14.0347 43.197 14.0704C42.9087 14.2138 42.6205 14.3931 42.3684 14.5364C42.1882 14.644 42.0081 14.7873 41.828 14.8589C42.1882 14.5364 42.6205 14.2497 43.0887 13.9988C43.197 13.9271 43.3049 13.8554 43.4131 13.8195C43.5211 13.7479 43.6292 13.6762 43.6652 13.5329C43.7373 13.3895 43.7012 13.2102 43.6652 13.1028C43.593 12.9952 43.5211 12.8877 43.3769 12.8519C43.5571 12.7801 43.7372 12.6727 43.9175 12.5652C44.0254 12.4935 44.1695 12.4218 44.2776 12.3143L44.3857 12.2067C44.4577 12.1349 44.4938 12.0633 44.5297 11.9558C44.5658 11.884 44.6018 11.7766 44.6018 11.669C44.6018 11.5615 44.5658 11.454 44.5297 11.3465C44.4936 11.239 44.4575 11.1673 44.3857 11.0956C44.2776 10.9522 44.1335 10.8447 43.9173 10.8088C43.8092 10.773 43.7012 10.7729 43.5931 10.7729C42.5846 10.8805 41.7919 11.2031 40.9635 11.4898C41.1076 11.4539 41.3237 11.3465 41.5039 11.3106C40.9635 11.5256 40.3871 11.7407 39.8468 11.9557C39.5226 12.0991 39.2344 12.2783 38.9823 12.4576C39.2344 12.2425 39.4866 12.0275 39.7387 11.7766C39.9549 11.5615 40.1709 11.2747 40.3871 11.0238C40.4952 10.9162 40.5673 10.7729 40.6754 10.6296C40.7834 10.4862 40.8555 10.3428 40.8914 10.1636C40.9275 10.056 40.9275 9.9127 40.8914 9.84111C40.8555 9.76944 40.8194 9.69777 40.7474 9.62611C40.7113 9.5543 40.6393 9.51853 40.5673 9.48263C40.4951 9.44672 40.4232 9.37506 40.3152 9.37506C40.279 9.37506 40.207 9.37506 40.1709 9.41096C39.9188 9.44687 39.7387 9.55444 39.5587 9.69777C39.4866 9.73361 39.4145 9.80527 39.3425 9.84111C38.7662 10.2353 38.2979 10.6655 37.7936 11.0955C37.0371 11.7407 36.2806 12.4217 35.5241 13.0669C34.8037 13.712 34.0833 14.3213 33.3628 14.9665C33.3268 15.0024 33.2908 15.0382 33.2548 15.0382C32.2461 15.8984 31.2375 16.7943 30.2289 17.6546C29.4724 18.2998 28.716 18.9808 27.9594 19.6258C28.4999 19.0883 29.0401 18.5506 29.6166 18.0489C29.7606 17.9054 29.9047 17.798 30.0127 17.6547C30.1568 17.5111 30.2649 17.3679 30.4089 17.2603C30.5531 17.1169 30.6971 17.0095 30.8051 16.8662C30.9494 16.7227 31.0934 16.6151 31.2014 16.4718C32.2822 15.3965 33.3627 14.3213 34.4435 13.2819L38.4779 9.26763C38.6942 9.05249 38.8742 8.87346 39.0543 8.65832C39.1265 8.58651 39.1984 8.51491 39.2344 8.44325C39.3425 8.26401 39.4145 8.08477 39.4145 7.90568V7.72644C39.4145 7.583 39.3064 7.47559 39.2344 7.36803L39.1624 7.29622C39.0903 7.2247 38.9823 7.18882 38.8742 7.18882C38.7662 7.15292 38.622 7.18881 38.5141 7.22471C38.2979 7.29637 38.1538 7.36804 37.9735 7.4756C37.9735 7.4756 37.7575 7.61891 37.6855 7.6906C37.7576 7.61891 37.8656 7.54726 37.9376 7.4756V7.43968C38.1177 7.22456 38.1897 6.93793 38.0097 6.79447C37.8656 6.61539 37.5414 6.65114 37.2892 6.83035C37.2412 6.8782 37.1932 6.92601 37.1451 6.97381C36.785 7.36801 36.4606 7.72651 36.1005 8.08491C35.9924 8.19249 35.9204 8.29991 35.7763 8.40749L34.8037 9.26763C34.5876 9.44687 34.3715 9.66187 34.1553 9.84111C33.9392 10.0203 33.7231 10.2353 33.507 10.4147L32.5344 11.2749C32.4262 11.3824 32.3181 11.454 32.2102 11.5615C32.4982 11.3465 32.7504 11.1673 33.0386 10.9881C32.5703 11.4182 32.066 11.8125 31.5617 12.2424C31.0574 12.6727 30.589 13.1027 30.0848 13.4969C29.1121 14.3213 28.1756 15.1815 27.239 16.0059L27.2031 16.0417C27.2031 15.3965 27.167 14.178 27.167 14.1062C27.167 14.0345 26.9869 13.9629 26.7708 13.9629H26.5907C26.6266 13.0308 26.6266 12.0633 26.6627 11.1314C26.6627 10.9162 26.4105 10.7729 26.0863 10.7729H25.9422C25.9063 10.7729 25.9063 10.773 25.8701 10.8088C25.8342 10.8088 25.8342 10.8447 25.7982 10.8447C25.7621 10.8447 25.7621 10.8806 25.726 10.8806C25.6901 10.8806 25.6901 10.9165 25.654 10.9165L25.6181 10.9524C25.6181 10.9524 25.5819 10.9883 25.5819 11.0243C25.5819 11.06 25.5819 11.06 25.546 11.0958V16.1853C25.4739 16.042 25.4019 15.9344 25.3659 15.7911C25.3298 15.7552 25.2937 15.6835 25.2937 15.6477C25.2578 15.3968 25.2578 15.1101 25.2578 14.8593C25.2578 14.6082 25.2217 14.3215 25.2217 14.0707C25.1858 13.5329 25.1497 13.0313 25.1497 12.4936C25.0777 11.06 24.9696 9.62618 24.9336 8.15665V7.97763C24.9336 7.90582 24.9337 7.83415 24.9696 7.79839C25.1137 6.32887 25.4379 3.4256 25.4379 3.35394C25.4379 2.78051 25.1497 2.31451 24.7535 2.27875C24.3573 2.27875 24.033 2.70883 23.9971 3.28225C23.9971 3.38982 24.105 5.43278 24.1772 6.5081C24.1772 6.57976 24.2132 6.6873 24.1772 6.75896C24.1772 6.90228 24.1411 7.0814 24.105 7.22499C23.9971 6.43632 23.8529 5.6479 23.7089 4.85935C23.5648 4.10671 23.4206 3.35393 23.2405 2.60129C23.1685 2.20709 23.0245 1.8129 22.8082 1.49022C22.9163 0.952559 22.5922 0.594097 22.1959 0.522436C21.8358 0.450775 21.5476 0.558352 21.3313 0.737572C21.0792 0.916793 20.863 1.31097 20.8271 1.59775C20.755 1.99195 20.8271 2.38617 20.8992 2.78038C21.0432 3.71238 21.1153 4.64435 21.2232 5.57608C21.2954 6.11388 21.3674 6.61552 21.4035 7.15318C21.2593 6.90231 21.1513 6.65142 21.0432 6.36478C20.2055 4.51806 19.353 2.67806 18.4856 0.844975C18.8458 1.66941 19.2421 2.49374 19.6022 3.35394C19.17 2.56553 18.8099 1.7053 18.4137 0.880859C18.1614 0.988418 17.9453 1.09602 17.6932 1.20344C18.7377 3.60483 19.7824 5.97044 20.8271 8.3718L21.7997 10.6299C21.8358 10.6656 21.8358 10.7374 21.8718 10.7732C21.0432 9.01694 20.2147 7.22485 19.3862 5.46868C19.9986 6.79488 20.5749 8.12096 21.1513 9.44701C21.1513 9.48291 21.1873 9.51882 21.1873 9.59049C20.4308 7.97763 19.6384 6.40052 18.8819 4.78767C18.8819 4.75178 18.8819 4.75179 18.8458 4.75179C18.7738 4.78769 18.7377 4.78767 18.7018 4.82344C18.1975 3.64056 17.261 1.38264 17.2248 1.31084C16.9727 0.80908 16.5043 0.522442 16.1082 0.665764C15.6759 0.737425 15.6039 1.27506 15.6759 1.66926C15.7479 1.95604 15.856 2.24284 15.9642 2.52949C16.0721 2.81626 16.1802 3.1388 16.3243 3.42558C16.3603 3.49724 16.3964 3.56892 16.3964 3.67648C16.4324 3.74814 16.4324 3.85567 16.5043 3.92734C16.2883 3.64056 16.0001 3.49725 15.784 3.56891C15.4958 3.67647 15.4237 4.14247 15.5319 4.60834C15.3157 4.32156 15.0635 4.17824 14.8474 4.2858C14.5592 4.39336 14.4873 4.89509 14.7033 5.43275C14.7033 5.43275 14.7033 5.46868 14.7394 5.46868C14.7753 5.50458 14.7753 5.54035 14.8114 5.61201L15.4597 7.22483C15.2796 6.93805 15.1357 6.65143 14.9555 6.36466C14.9195 6.29299 14.8834 6.25709 14.8474 6.22132C14.7394 6.11377 14.5952 6.07785 14.4511 6.14952C14.343 6.22131 14.235 6.32886 14.235 6.47218C14.235 6.54384 14.271 6.61552 14.271 6.68731C14.3071 6.75898 14.3432 6.83064 14.3432 6.8664C14.6672 7.65495 14.9915 8.3718 15.3157 9.16034C15.9642 10.7015 16.6124 12.207 17.2969 13.748C17.7292 14.68 18.1255 15.6476 18.5576 16.5796C18.5937 16.6513 18.6297 16.6872 18.6297 16.7587C18.1255 15.7194 17.6571 14.68 17.1529 13.6406C17.7652 15.0383 18.3776 16.4721 18.99 17.834C19.026 17.8699 19.026 17.9057 19.026 17.9774C18.9179 17.9414 18.8458 17.9414 18.7738 17.9057C18.7017 17.8699 18.5937 17.8698 18.5216 17.834C18.4495 17.7981 16.6845 16.938 16.5405 16.8664C16.0721 16.6154 10.4526 14.2499 10.2366 14.1423C10.2005 14.1423 10.1644 14.1065 10.1644 14.1065C9.48017 13.8198 9.29986 14.4649 9.37206 14.6441C9.15584 14.5723 8.9037 14.4649 8.65156 14.3932C8.39943 14.3215 7.93107 14.1423 7.93107 14.1423C7.82311 14.1065 7.64297 14.2499 7.57095 14.4649C7.53487 14.5725 7.49879 14.7158 7.53487 14.7875C7.24664 14.7158 6.95856 14.6441 6.70641 14.5366C6.56223 14.5007 6.41819 14.429 6.23807 14.3932C6.09402 14.3573 5.9139 14.3214 5.73378 14.2857C5.55366 14.2498 5.37353 14.2139 5.19341 14.2498C5.01329 14.2857 4.79723 14.3214 4.65304 14.4648C4.509 14.6082 4.509 14.8232 4.54508 15.0383C4.58102 15.2175 4.68912 15.3966 4.79723 15.5759C4.83317 15.6116 4.86925 15.6834 4.90519 15.7193C4.94127 15.7552 4.97735 15.7909 5.01329 15.8626L5.15734 16.0059C5.22949 16.0417 5.26543 16.1135 5.33746 16.1494C5.40962 16.1853 5.48164 16.2211 5.55366 16.2928C5.62581 16.3287 5.6977 16.4003 5.8058 16.4361C5.87796 16.472 5.98592 16.5436 6.09402 16.5795L6.41806 16.6871C6.52629 16.723 6.63426 16.7587 6.77843 16.7946C6.81438 16.7946 6.85046 16.8305 6.85046 16.8305C6.70641 16.7946 6.59831 16.7946 6.45427 16.7587C6.38211 17.0814 6.23807 17.5115 6.23807 17.5115C6.23807 17.5115 11.6054 19.8054 14.343 20.9164C12.7581 20.4147 11.1371 19.9129 9.552 19.4111C9.01181 19.2319 8.47141 19.0886 7.96713 18.9094C6.92248 18.5869 5.76972 18.3001 4.54508 18.1208C4.22078 18.0849 3.89661 18.049 3.57244 18.049C3.42827 18.049 3.24828 18.0133 3.1041 17.9775C2.96005 17.9417 2.77993 17.9416 2.63575 17.9057C2.56373 17.9057 2.49171 17.9058 2.41969 17.87C2.34753 17.8341 2.27565 17.834 2.20363 17.7982C1.87932 17.6908 1.51921 17.5832 1.19491 17.4758C1.12289 17.4758 1.08695 17.4398 1.01479 17.4398H0.978845C0.762643 17.4039 0.546578 17.6191 0.474556 17.9058C0.402398 18.1925 0.546578 18.4793 0.726701 18.5151H0.798722C1.30301 18.5868 1.77135 18.6226 2.23956 18.6942C2.34767 18.6942 2.45577 18.766 2.56373 18.8018C2.88803 18.9094 3.24828 19.0169 3.57244 19.1244C3.50029 19.2678 3.46435 19.447 3.42827 19.5904C3.39232 19.6979 3.35625 19.8413 3.3203 19.9488C3.3203 19.9847 3.3203 19.9847 3.28423 20.0204L4.36495 20.3429C6.92248 21.0956 9.48002 21.8483 12.0016 22.6011L11.7855 23.2461C10.993 22.9952 10.2005 22.7085 9.40797 22.4218C9.01181 22.2784 8.61558 22.135 8.21927 22.0276C7.4269 21.7766 6.56237 21.4541 5.76972 21.2032C5.76972 21.2032 5.6977 21.1674 5.73378 21.2032C5.76972 21.2391 5.84188 21.2391 5.87783 21.2749C6.56223 21.5257 7.24664 21.7409 7.93107 21.9918C8.25533 22.0993 8.6155 22.2426 8.93976 22.35C8.97568 22.35 9.04773 22.3859 9.08379 22.4218C8.75967 22.35 8.43535 22.2427 8.11116 22.1351C7.46285 21.9559 6.85046 21.7409 6.20199 21.5615C5.87796 21.454 5.55366 21.3465 5.26544 21.2391C4.90519 21.1314 4.58102 20.9881 4.22078 20.8805C4.04065 20.8088 3.71649 20.7013 3.3203 20.558C2.92412 20.3071 2.34767 20.0919 1.8073 19.9129C1.77136 19.9129 1.73528 19.877 1.6992 19.877C1.51921 19.8411 1.33909 19.9846 1.26693 20.2353C1.19491 20.4862 1.26693 20.7013 1.44705 20.773H1.51921C1.59124 20.773 1.59124 20.8088 1.66326 20.8088C2.99614 21.1673 4.29293 21.5615 5.58974 21.9199C5.73378 21.9559 5.87783 21.9918 5.98592 22.0275C6.63426 22.2426 7.3188 22.4935 7.93107 22.7085C7.60703 22.6368 7.28273 22.5293 6.95856 22.4576C7.39083 22.5652 7.78705 22.6727 8.21927 22.8161C8.43549 22.8877 8.61543 22.9594 8.79559 23.0311C9.01181 23.1029 9.19175 23.1745 9.37206 23.2461C10.1644 23.533 10.9569 23.7838 11.7495 24.0705C12.5419 24.3572 13.3345 24.6082 14.127 24.8949C14.9193 25.1457 15.7119 25.4325 16.5043 25.7192C14.5592 27.4755 12.5779 29.2318 10.8129 31.203C10.4812 31.5691 10.1686 31.9519 9.87618 32.35C9.84027 32.3859 9.80428 32.4575 9.76822 32.4933C9.69617 32.565 9.58813 32.6368 9.51608 32.7084C9.51608 32.7084 9.08379 33.0309 9.01181 33.1384C8.93962 33.246 9.04773 33.4969 9.26395 33.6402C9.48002 33.7836 9.7323 33.8194 9.84027 33.7121C9.94838 33.4969 10.0924 33.3177 10.2005 33.1026C10.2366 33.0667 10.2726 32.995 10.3086 32.9593C10.3445 32.9234 10.3807 32.8875 10.4526 32.8517C10.5608 32.7799 10.6327 32.7084 10.7408 32.6366C13.2984 30.5938 15.82 28.5866 18.3776 26.5078C18.4135 26.4719 18.4856 26.4002 18.5216 26.4002L18.5938 26.4361C18.6657 26.472 18.7738 26.5078 18.8458 26.5078C18.2334 27.1528 17.6211 27.798 17.0447 28.479C16.9007 28.6583 16.7565 28.8016 16.5764 28.9808C16.2883 29.3033 15.964 29.6258 15.6759 29.9843C15.5317 30.1635 15.3877 30.307 15.2437 30.4861C15.2796 30.4861 15.3156 30.4144 15.3518 30.4144C14.271 31.5614 12.0377 33.7836 12.0377 33.7836L12.2178 33.9628C11.7135 34.4288 11.1731 34.9305 10.6327 35.3964L10.7768 35.5398L10.1285 36.0776C10.0924 36.1135 10.0204 36.1492 10.0204 36.1492C9.91224 36.2567 9.98444 36.5434 10.2005 36.7942C10.3806 37.0094 10.5967 37.1527 10.7408 37.1169C10.3806 37.4753 9.94845 37.8696 9.58813 38.2279L9.40797 38.4072C9.30001 38.5506 9.22789 38.9089 9.30001 39.124C9.30001 39.1599 9.33592 39.2673 9.40797 39.3032C9.11992 39.5541 8.83165 39.7692 8.54346 40.0201L8.47141 40.0918C8.39943 40.1993 8.43549 40.3784 8.57952 40.5576C8.72354 40.7368 8.93976 40.8444 9.04787 40.7727C9.04787 40.8444 9.04787 40.952 9.11992 41.0594C9.22789 41.2029 9.33592 41.2745 9.44389 41.2386H9.48002C9.51608 41.2386 9.51608 41.2027 9.51608 41.2027C10.5246 40.4143 11.4973 39.6258 12.4699 38.8372C12.7941 38.5863 13.1543 38.2994 13.4785 38.0487C13.1543 38.4788 12.8661 38.9447 12.5419 39.339L12.4338 39.4465C12.2898 39.5899 12.1458 39.6974 12.0377 39.8407C11.7495 40.1275 11.4973 40.3784 11.2091 40.6293L10.5246 41.3103C10.4887 41.3461 10.3806 41.4178 10.3806 41.4178C10.1645 41.6687 10.1645 42.0272 10.3806 42.2423H10.4167C10.4167 42.2423 10.4526 42.2423 10.4526 42.278C10.4526 42.278 10.4887 42.278 10.4887 42.3139H10.8849C10.8849 42.3139 10.921 42.3139 10.921 42.278C10.921 42.278 10.9569 42.2781 10.9569 42.2423C10.9569 42.2423 10.993 42.2423 10.993 42.2063L11.0291 42.1705L11.065 42.1345L11.1011 42.0987V42.027L11.1371 41.9911C11.1371 41.9911 11.1371 41.9552 11.1731 41.9552C11.1731 41.9552 11.1731 41.9193 11.2091 41.9193C11.2091 41.9193 11.2091 41.8834 11.2451 41.8834L11.2812 41.8475L11.3172 41.8117L11.3532 41.7757L11.3892 41.7399L11.4253 41.704L11.4612 41.6681C11.4612 41.6322 11.4973 41.6321 11.4973 41.5962C11.4973 41.5605 11.5334 41.5605 11.5334 41.5247C11.5334 41.4888 11.5693 41.4888 11.5693 41.4529C11.5693 41.4172 11.6054 41.4172 11.6054 41.3814C11.6054 41.3455 11.6413 41.3455 11.6413 41.3096C11.6413 41.2738 11.6774 41.2738 11.6774 41.2381C11.6774 41.2022 11.7135 41.2022 11.7135 41.1662C11.7135 41.1305 11.7495 41.1305 11.7495 41.0947C11.7495 41.0589 11.7855 41.0588 11.7855 41.0229C11.7855 40.9872 11.8214 40.9872 11.8214 40.9515C11.8214 40.9156 11.8576 40.9155 11.8576 40.8797C11.8576 40.8439 11.8935 40.8439 11.8935 40.8081C11.8935 40.7722 11.9295 40.7722 11.9295 40.7363C11.9295 40.7006 11.9656 40.7006 11.9656 40.6648C11.9656 40.6289 12.0016 40.6289 12.0016 40.593C12.0016 40.5572 12.0377 40.5572 12.0377 40.5215C12.0377 40.4856 12.0736 40.4856 12.0736 40.4497C12.0736 40.4139 12.1097 40.4139 12.1097 40.3781C12.1097 40.3422 12.1456 40.3422 12.1456 40.3063C12.1456 40.2706 12.1817 40.2706 12.1817 40.2348C12.1817 40.199 12.2178 40.1989 12.2178 40.163C12.2178 40.1272 12.2537 40.1273 12.2537 40.0915C12.2537 40.0556 12.2898 40.0556 12.2898 40.0197C12.2898 39.984 12.3258 39.984 12.3258 39.9482C12.3258 39.9123 12.3618 39.9123 12.3618 39.8764C12.3618 39.8406 12.3979 39.8406 12.3979 39.8049C12.3979 39.769 12.4338 39.769 12.4338 39.7331C12.4338 39.6973 12.4699 39.6973 12.4699 39.6615C12.5779 39.5181 12.686 39.3388 12.8302 39.2314C12.9742 39.1238 13.0823 38.9806 13.2264 38.8372C13.6225 38.4429 14.0188 38.0844 14.4151 37.6902C14.8112 37.296 15.2076 36.9375 15.6038 36.5432L15.9999 36.1491C16.2522 35.898 16.5405 35.6471 16.7926 35.3963L17.1888 35.0021C17.4409 34.7511 17.7292 34.5003 17.9813 34.2494C18.3775 33.8552 18.7737 33.4966 19.17 33.1025L19.3501 32.9232C19.5303 32.7441 19.7463 32.5291 19.9625 32.3498L20.3587 31.9556C20.4308 31.8838 20.5029 31.8479 20.5749 31.7763C21.0072 31.4178 21.4394 31.0595 21.8717 30.7368C22.376 30.3426 22.8803 29.9125 23.3846 29.5183C19.8544 33.1382 16.3243 36.7582 12.8302 40.4142L12.7941 40.4501C13.7668 39.4823 14.7753 38.5145 15.7479 37.5469L17.5851 35.7189C17.9452 35.3605 18.3055 34.9663 18.6657 34.6079C19.17 34.1061 19.6384 33.6042 20.1066 33.1384C21.0792 32.1706 22.0518 31.1671 23.0245 30.1993L24.4292 28.8014L24.5014 28.7298L24.6093 28.9449C24.6455 29.0166 24.6455 29.0882 24.6455 29.1599L24.7535 29.6975C24.9336 31.2746 25.1858 33.6043 25.2218 33.7836C25.2938 34.3927 25.4019 35.038 25.51 35.6473C25.726 37.081 26.7347 42.7439 26.9149 43.1023C26.9869 43.2816 27.167 43.4965 27.3832 43.4965C27.5992 43.5325 27.8514 43.2816 27.8874 43.0666C27.9234 42.7798 27.8153 42.493 27.8153 42.2063V39.4106C27.8153 39.0165 27.7794 38.6222 27.7433 38.2279C27.6712 37.4394 27.5632 36.6508 27.4551 35.8623C27.4192 35.6473 27.3111 34.3927 27.3111 34.2136C28.5717 36.6508 31.0934 41.5613 31.0934 41.5613C31.1655 41.6328 31.3455 41.6328 31.5976 41.5613C31.8139 41.4536 31.9938 41.3102 31.9579 41.2027C30.9493 38.7297 29.9407 36.2207 28.932 33.7836C29.6164 34.6438 30.2649 35.5397 30.9132 36.4358C30.9493 36.5075 30.9854 36.5434 31.0213 36.6151C31.0574 36.6867 31.0934 36.7584 31.0934 36.8301C31.4897 37.7978 31.9219 38.7297 32.3542 39.6258C31.8139 38.6937 31.3455 37.7262 30.9132 36.7225C31.2014 37.4035 31.4537 38.0846 31.7418 38.7656C32.0299 39.4106 32.3901 40.0558 32.7504 40.6293C32.9305 40.9161 33.1106 41.2027 33.3267 41.4895C33.4709 41.6687 33.6869 41.8837 33.8672 42.0272C34.0472 42.1704 34.3714 42.3138 34.6957 42.2421C34.8758 42.2062 35.0197 42.0988 35.1279 41.9555C35.2359 41.812 35.3081 41.6328 35.2719 41.4177C35.2719 41.2027 35.1998 41.0235 35.1279 40.8442C35.344 40.7726 35.5241 40.6652 35.7403 40.5576C35.7763 40.5576 35.8123 40.5577 35.8123 40.5218C35.4162 39.6973 34.9837 38.8371 34.6236 38.0128C34.2275 37.1883 33.795 36.3282 33.4348 35.5039C33.0386 34.6796 32.6424 33.8193 32.2461 32.995C31.8499 32.1706 31.4176 31.3461 31.0213 30.5218C31.1655 30.5935 31.3455 30.6294 31.4897 30.6651C33.2547 34.3211 35.0559 37.941 36.857 41.5611C35.1639 37.9411 33.4709 34.3568 31.7777 30.7727C33.6869 31.382 35.5961 32.0272 37.5414 32.6365C36.5687 32.2781 35.5961 31.9555 34.6236 31.597C33.651 31.2387 32.6784 30.916 31.7058 30.5935C31.5978 30.3785 31.4897 30.1275 31.3816 29.9125C32.2461 30.1993 33.1106 30.4501 33.9752 30.7368C34.0832 30.7727 34.2273 30.8086 34.3354 30.8444C35.5961 31.2386 36.8569 31.5972 38.1177 31.9554C38.3698 32.0272 38.622 32.0989 38.8742 32.2065C39.3786 32.3498 39.8468 32.5289 40.3511 32.6725C40.8553 32.8516 41.3237 32.9949 41.7921 33.1741C42.1522 33.3175 42.5124 33.425 42.8726 33.5683C42.9808 33.6401 43.1248 33.7118 43.1248 33.7118H43.197C43.449 33.7118 43.8092 33.2458 43.9893 32.6366C44.2055 31.9554 44.1335 31.3104 43.8813 31.2386C43.8813 31.2386 43.7372 31.2028 43.7012 31.2028C43.7733 30.916 43.7372 30.6651 43.5571 30.6294C43.5571 30.6294 39.4506 29.3032 37.4694 28.6939C37.1811 28.6222 36.8929 28.5146 36.6049 28.443C35.4882 28.0846 34.3353 27.7261 33.2187 27.4036H33.579C33.795 27.4752 35.38 27.977 35.8483 28.1205C36.6769 28.3713 37.4694 28.6222 38.2619 28.8731C39.0183 29.124 40.5673 29.6258 40.6032 29.6258H40.6754C40.7474 29.5899 40.8194 29.5182 40.8555 29.4108C40.8914 29.2673 40.8914 29.1599 40.8555 29.0881C40.8555 29.0881 40.8555 29.0522 40.8194 29.0522H40.7834L40.135 28.8372C39.3786 28.5863 38.622 28.3355 37.8656 28.0488C37.3613 27.8694 36.857 27.6902 36.3527 27.5469C36.1726 27.4751 35.9924 27.4394 35.8122 27.3677C41.1797 27.2244 46.4751 26.8659 44.4577 26.5075ZM11.7135 23.6759C11.4253 23.6042 11.1371 23.4968 10.849 23.4251C10.921 23.4251 10.993 23.461 11.065 23.4968C11.2091 23.5327 11.3532 23.5684 11.5334 23.6401C11.6054 23.676 11.6774 23.676 11.7495 23.7119C11.7495 23.6759 11.7135 23.6759 11.7135 23.6759ZM24.5373 13.1384C24.5373 13.0308 24.5734 12.8875 24.5734 12.7799C24.6093 12.6008 24.6093 12.4574 24.6455 12.2782C24.7176 12.7083 24.7535 13.1742 24.8616 13.6045C24.8976 13.7477 24.8976 13.8911 24.8976 14.0344C24.7895 13.8194 24.6815 13.6043 24.5734 13.3534C24.5734 13.3175 24.5373 13.2818 24.5373 13.2458V13.1384ZM24.3932 14.2494C24.3932 14.1777 24.4294 14.0344 24.4294 13.9627C24.5734 14.2494 24.7174 14.5719 24.8616 14.8587C24.8976 14.8946 24.8976 14.9305 24.9336 14.9663V15.1098C24.9336 15.253 24.9337 15.3963 24.9696 15.5757C24.7895 15.2171 24.6093 14.8229 24.4294 14.4286C24.3932 14.357 24.3932 14.3209 24.3932 14.2494ZM24.2132 9.62582C24.1771 9.87672 24.141 10.1635 24.141 10.4144C24.105 10.8086 24.0691 11.167 24.033 11.5255C24.1052 10.8803 24.2132 10.1992 24.2852 9.55415C24.3213 9.66172 24.2852 9.84096 24.2852 9.9843C24.2132 10.7012 24.1411 11.4537 24.0691 12.1706L23.961 11.9556C23.961 11.9197 23.925 11.8839 23.925 11.8839C23.925 11.848 23.925 11.7763 23.961 11.7047C24.0691 10.8803 24.1771 10.0202 24.2492 9.23165C24.2492 9.33915 24.2132 9.48248 24.2132 9.62582ZM22.7723 10.8444C22.7363 10.6652 22.7363 10.486 22.7001 10.3068C23.0604 11.0237 23.3847 11.7406 23.7448 12.4214C23.7448 12.5291 23.7089 12.6724 23.7089 12.7799C23.3847 12.1706 23.0605 11.4897 22.7723 10.8444ZM23.6008 13.3534C23.6008 13.4251 23.5648 13.4968 23.5648 13.5327C23.3486 13.0666 23.1326 12.6006 22.9524 12.099C22.9524 12.0631 22.9163 12.0272 22.9163 11.9915C22.8803 11.9197 22.9163 11.848 22.8803 11.7763C23.1326 12.314 23.3486 12.8517 23.6008 13.3534ZM22.4121 10.8085C22.5202 10.9878 22.5922 11.2028 22.6642 11.3822V11.5255C22.5561 11.3105 22.4841 11.1312 22.376 10.9161C22.4481 10.8802 22.4121 10.8444 22.4121 10.8085ZM22.5561 9.9843C22.5561 10.1635 22.5922 10.3067 22.5922 10.4503C22.4841 10.2709 22.4121 10.056 22.304 9.84082C22.304 9.69748 22.268 9.51839 22.268 9.37477C22.34 9.58991 22.448 9.80506 22.5561 9.9843ZM22.1599 8.58622C22.1599 8.4431 22.1238 8.29963 22.1238 8.12039C22.2319 8.33553 22.34 8.55053 22.4121 8.7656C22.4121 8.87317 22.448 9.01651 22.448 9.12408C22.34 8.9806 22.268 8.7656 22.1599 8.58622ZM22.5202 9.08817C22.7363 9.55415 22.9524 10.0201 23.1685 10.5218H23.1326C23.0965 10.4501 23.0604 10.3785 22.9884 10.2709C22.8803 10.0559 22.7363 9.80491 22.6282 9.55415C22.5922 9.51825 22.5561 9.44658 22.5561 9.41075C22.5561 9.37484 22.5561 9.30318 22.5202 9.23151C22.5561 9.1956 22.5202 9.12394 22.5202 9.08817ZM23.6728 13.5325C23.7089 13.6043 23.7449 13.7118 23.817 13.8193C23.817 13.8911 23.7809 13.9626 23.7809 14.0344C23.7448 13.9268 23.7087 13.8552 23.6368 13.7476C23.6728 13.6758 23.6728 13.6043 23.6728 13.5325ZM23.7809 13.0665C23.7809 13.0308 23.7448 13.0308 23.7448 12.995C23.7448 12.9591 23.7448 12.8515 23.7809 12.8157C23.7809 12.744 23.7809 12.6724 23.817 12.6365C23.8529 12.7082 23.889 12.8158 23.961 12.9233C23.961 13.0308 23.925 13.1742 23.925 13.2816C23.8529 13.2099 23.817 13.1382 23.7809 13.0665ZM17.8732 1.27467C17.8373 1.27467 17.8373 1.20303 17.8373 1.20303C17.8373 1.16713 17.8011 1.1671 17.8373 1.13134L17.8732 1.16727C17.9093 1.27482 17.9453 1.34649 17.9813 1.45405L18.9539 3.81951C18.5937 2.99521 18.2334 2.13487 17.8732 1.27467ZM19.062 2.78009C18.9179 2.49344 18.7738 2.17077 18.6297 1.84823C18.5216 1.59735 18.3776 1.31057 18.2695 1.05982C18.2695 1.05982 18.2695 1.02378 18.2334 0.988014C18.2334 0.952116 18.2334 0.95213 18.2695 0.95213C18.3055 0.988028 18.3055 1.02394 18.3055 1.0597C18.7017 1.88414 19.098 2.70842 19.4582 3.56862C19.9986 4.71561 20.5389 5.86249 21.0792 7.04537C21.1873 7.29625 21.3313 7.54709 21.4394 7.79796C21.4394 7.83387 21.4755 7.86963 21.5116 7.90553V8.0131C21.5116 8.12068 21.5476 8.2281 21.5476 8.33568C20.719 6.47193 19.8905 4.64382 19.062 2.78009ZM21.6916 3.92709C21.7276 3.96298 21.7276 4.03464 21.7276 4.1063C21.7276 3.96298 21.6916 3.81964 21.6916 3.67619C21.6195 3.10277 21.5476 2.5651 21.5114 1.99168C21.4755 1.81246 21.5114 1.59751 21.6195 1.41829C21.6917 1.27483 21.8717 1.16739 22.0518 1.16739C22.34 1.16739 22.5922 1.56161 22.7003 1.77658C22.7723 1.92005 22.8082 2.06336 22.8803 2.24258C22.9163 2.3859 22.9524 2.56511 23.0245 2.70857C23.2045 3.35365 23.3847 3.99887 23.5287 4.67986C23.6728 5.36084 23.817 6.04183 23.925 6.75872C24.033 7.3679 24.105 7.9772 24.2132 8.62241C24.2132 8.69408 24.2492 8.80165 24.2492 8.87332C24.2492 8.94499 24.2492 8.98089 24.2132 9.05256C24.105 9.91277 23.9971 10.8446 23.889 11.7048C23.4928 10.8805 23.0604 9.98437 22.6642 9.12415C22.6282 9.05249 22.592 9.01665 22.592 8.94499C22.5561 8.87332 22.5561 8.76575 22.5561 8.65818C22.4841 8.0131 22.376 7.33199 22.304 6.6869C22.1959 5.8985 22.0879 5.14573 22.0158 4.35719C22.0158 4.53641 22.0518 4.71564 22.0879 4.89499C22.2319 6.1494 22.376 7.40377 22.5202 8.69408C22.448 8.51484 22.34 8.33568 22.268 8.12068C22.268 8.08477 22.2319 8.04887 22.2319 8.04887V7.90553L22.0158 5.97018C21.7997 5.32496 21.7275 4.60807 21.6916 3.92709ZM19.8544 9.01665C19.8905 9.08846 19.9625 9.2318 19.9625 9.30346C20.6469 10.952 21.3313 12.6009 22.0518 14.2496C22.1599 14.4646 22.2319 14.6798 22.34 14.9307C22.34 14.9666 22.376 15.0023 22.376 15.0382C22.376 15.1099 22.376 15.1457 22.4121 15.2532C21.5835 13.1743 20.719 11.1673 19.8905 9.12415C19.8544 9.05249 19.8544 9.05256 19.8544 9.01665C19.8185 9.01665 19.8185 8.98075 19.8544 9.01665ZM20.9712 25.4323C21.0432 25.3605 21.1153 25.2531 21.2234 25.1814C21.2954 25.2173 21.3674 25.2173 21.4035 25.2531C21.4035 25.2531 21.4035 25.2889 21.3674 25.2889C21.2953 25.3965 21.1873 25.4682 21.0792 25.5756C21.0432 25.5397 20.9712 25.5397 20.899 25.5039C20.899 25.4681 20.9712 25.4323 20.9712 25.4323ZM20.7911 25.4323L20.755 25.4682C20.755 25.4323 20.7911 25.4323 20.7911 25.4323C20.8631 25.3247 20.9712 25.253 21.0432 25.1456C21.0072 25.2173 20.899 25.3247 20.7911 25.4323ZM19.8185 8.98082C19.8185 8.98082 19.7824 8.94499 19.7824 8.90908C19.8185 8.94513 19.8185 8.98082 19.8185 8.98082ZM20.2867 13.6401C20.5749 14.2135 20.7911 14.8587 21.0432 15.468L20.611 14.6078C20.4668 14.3211 20.3589 13.9985 20.2148 13.7117L19.4582 11.8837C19.7465 12.4573 19.9986 13.0308 20.2867 13.6401ZM19.5663 14.1777C19.7103 14.5001 19.8544 14.8228 19.9986 15.1095C20.1426 15.4321 20.2867 15.7547 20.3948 16.0773C19.8905 15.2529 19.3862 14.3568 18.9179 13.4966C18.8458 13.3533 18.7377 13.2099 18.6657 13.0665C18.5937 12.9232 18.5216 12.7441 18.4497 12.6005C17.9093 11.3103 17.3689 10.0559 16.8646 8.7297C16.8646 8.69379 16.9007 8.7656 16.9007 8.7656C17.1888 9.33908 17.477 9.94832 17.7652 10.5219C18.0893 11.1311 18.3776 11.7404 18.6657 12.3497C18.9899 12.9233 19.2781 13.5326 19.5663 14.1777ZM16.5765 1.63314C16.7565 2.06324 16.9366 2.52906 17.1168 2.99506C17.1529 3.06672 17.1529 3.13842 17.1889 3.17431C17.0087 2.63666 16.8285 2.13487 16.6124 1.59721H16.6486C17.1529 2.74419 17.6571 3.85529 18.1614 5.03803C18.0893 5.0738 18.0174 5.10984 17.9453 5.1456L17.4048 3.85528C17.3329 3.71196 17.2969 3.56862 17.2248 3.42517C17.1168 3.13852 16.9727 2.85177 16.8287 2.565C16.6845 2.27835 16.5765 1.99158 16.5765 1.63314ZM16.3603 1.70478C16.8287 2.77996 17.2969 3.85526 17.7652 4.96635C17.7652 5.00224 17.8011 5.07394 17.8373 5.1456V5.18148C17.8373 5.21738 17.8373 5.18147 17.8011 5.21737C17.7652 5.21737 17.7652 5.21738 17.7652 5.18148C17.7292 5.14558 17.7292 5.03817 17.693 5.00227C17.2969 3.85529 16.8287 2.7801 16.3603 1.70478ZM15.4957 8.29977C15.5317 8.33568 15.5317 8.37144 15.5317 8.37144C15.6398 8.58637 15.784 8.80151 15.856 9.01651C15.964 9.26734 16.0721 9.55415 16.1802 9.80491C15.964 9.30325 15.7478 8.80165 15.4957 8.29977ZM15.9642 9.08817C16.2522 9.62582 16.5764 10.1993 16.8646 10.7369C16.9007 10.8445 16.9727 10.9162 17.0087 11.0237C17.9453 13.2816 18.9179 15.6113 19.9625 17.7978C20.0347 17.9769 20.1426 18.1562 20.2147 18.3354C20.2147 18.3354 20.2507 18.3713 20.2147 18.3713C20.1787 18.3713 20.1787 18.3354 20.1426 18.3354C18.6657 15.3247 17.297 12.2065 15.9642 9.08817ZM16.7206 19.3389C16.8646 19.4105 17.0447 19.4823 17.1889 19.554L19.9986 20.8443L19.2061 21.3461C19.098 21.3102 19.026 21.2743 18.9179 21.2027C18.5938 21.0594 18.2695 20.916 17.9093 20.7726C17.693 20.665 17.477 20.5933 17.2248 20.4859C16.5764 20.1992 15.892 19.8766 15.2796 19.5539C15.1356 19.59 14.9555 19.5539 14.8112 19.4824C14.4151 19.3389 14.055 19.1597 13.7306 18.9805C13.6947 18.9805 13.6587 18.9446 13.6587 18.9446C13.3345 18.7655 13.0103 18.6221 12.686 18.4428C12.5781 18.3712 12.4338 18.3353 12.3259 18.2636C13.6588 18.5504 14.9555 18.8372 16.2163 19.1956C16.3603 19.2315 16.5403 19.3032 16.7206 19.3389ZM19.7465 22.2063C19.6384 22.1704 19.5303 22.1345 19.3862 22.0629C19.2781 22.0269 19.2061 21.9912 19.098 21.9554C19.134 21.9554 19.134 21.9553 19.1702 21.9194C19.3862 21.9912 19.5663 22.0988 19.7465 22.2063ZM13.4785 17.0807C13.5146 17.0807 13.5507 17.1166 13.6227 17.1166C13.6587 17.1525 13.7306 17.1525 13.7668 17.1525C13.8027 17.1525 13.8389 17.1884 13.8389 17.2243C13.9108 17.2959 14.0189 17.3677 14.0909 17.4393C13.8387 17.3318 13.5505 17.1884 13.2986 17.0809C13.3704 17.1168 13.4426 17.0807 13.4785 17.0807ZM11.0291 16.7583C11.2451 16.8659 11.4613 16.9733 11.7135 17.0809C12.3979 17.3676 13.0463 17.6902 13.7306 18.0129C12.614 17.7978 11.4973 17.5826 10.3447 17.3676C10.2725 17.3676 10.2005 17.3318 10.1285 17.3318C10.0924 17.3318 10.0563 17.2958 10.0204 17.26L12.3618 17.4393C12.3618 17.4393 11.1011 16.8657 9.66011 16.2564L9.98444 16.364C10.1285 16.3999 10.2366 16.4358 10.3445 16.4716C10.5968 16.5433 10.8129 16.6507 11.0291 16.7583ZM8.47141 14.8587C9.08379 15.0738 9.69617 15.2888 10.2726 15.5039C10.2005 15.5039 10.1285 15.468 10.0204 15.4321L9.26395 15.2171H9.30001C9.1919 15.1812 9.15584 15.1813 9.08379 15.1455C8.97568 15.1455 8.86778 15.1095 8.79559 15.1095C8.72354 15.0736 8.65156 15.0379 8.54346 15.002C8.50754 14.9661 8.47141 14.9661 8.43549 14.9661C8.32738 14.9302 8.21927 14.8586 8.07524 14.8228C8.00305 14.7869 7.89509 14.751 7.82311 14.7152C8.03918 14.6793 8.29146 14.787 8.47141 14.8587ZM12.2537 19.2314C12.4338 19.3388 12.686 19.4464 12.8661 19.5897C12.4699 19.4105 12.0377 19.2312 11.6413 19.052C10.4167 18.5145 9.15584 18.0126 7.89509 17.475C7.96713 17.475 8.03918 17.5109 8.14729 17.5109L9.01181 17.6902C9.15584 17.7618 9.30001 17.8335 9.48017 17.8694C9.58813 17.9053 9.7323 17.9053 9.87633 17.9053C9.98444 17.9053 10.1285 17.9053 10.2366 17.9412L11.2091 18.5863L11.3172 18.6222L13.4065 19.4824L15.6759 20.5218L12.2178 19.1239C12.2178 19.1958 12.2537 19.2314 12.2537 19.2314ZM13.6947 22.9949C13.7668 22.9949 13.8748 23.0307 13.9468 23.0666L14.7033 23.2817H14.6672C14.4873 23.2458 14.3432 23.2099 14.1629 23.1384C13.9828 23.1024 13.8389 23.0308 13.6947 22.9949ZM14.199 23.1741C15.4597 23.5325 16.7565 23.8909 18.0174 24.2852V24.3211C17.9813 24.357 17.8732 24.4286 17.8373 24.4645C16.6124 23.9986 15.4237 23.6043 14.199 23.1741ZM15.4958 25.002C15.9281 25.1096 16.3603 25.2529 16.8287 25.3605L16.7565 25.4323C16.3243 25.2887 15.892 25.1454 15.4958 25.002ZM17.6571 26.0773C16.1441 27.2959 14.6673 28.4787 13.1543 29.6974C13.6587 29.2314 14.127 28.7296 14.6313 28.2637L14.8834 28.0128C14.9555 27.9411 15.0635 27.8694 15.1356 27.7619L16.1082 26.7941C16.3603 26.5432 16.6124 26.3281 16.8646 26.0773C16.9368 26.0056 17.0447 25.9339 17.1168 25.8623C17.2969 25.9341 17.477 25.9698 17.6571 26.0773C17.693 26.0414 17.6571 26.0414 17.6571 26.0773ZM17.9453 25.8265C17.7652 25.7547 17.5492 25.683 17.3689 25.6473C17.3689 25.6114 17.441 25.5754 17.441 25.5397C17.6571 25.6114 17.8732 25.6473 18.0894 25.7189C18.0533 25.7548 18.0172 25.7906 17.9453 25.8265ZM17.5492 22.744C15.856 22.2065 14.1629 21.7045 12.4699 21.1311C14.7394 21.8121 17.0087 22.4931 19.2421 23.2099C19.2061 23.2459 19.2061 23.2459 19.134 23.2459L18.8099 23.1384C18.3776 22.995 17.9453 22.8514 17.5492 22.744ZM18.4497 24.6436C18.4497 24.6077 18.4856 24.6077 18.4856 24.6077L18.6297 24.4644L19.3862 24.6795C19.2781 24.7511 19.2061 24.8228 19.098 24.8945C18.8819 24.7869 18.6657 24.7153 18.4497 24.6436ZM18.7738 26.1131C18.846 26.0413 18.8819 26.0055 18.9539 25.9698C19.026 26.0057 19.134 26.0057 19.2061 26.0415C19.17 26.1132 19.098 26.149 19.062 26.2206C18.9539 26.1847 18.8458 26.1489 18.7738 26.1131ZM9.94838 39.697L11.3532 38.5144C12.9382 37.1523 14.4873 35.7902 16.0721 34.4284C15.964 34.6076 15.82 34.7868 15.6759 35.0018C15.6398 35.0377 15.6398 35.0734 15.6398 35.0734L15.5317 35.181C14.9915 35.647 14.4151 36.113 13.8748 36.5789C13.9468 36.5071 14.055 36.4713 14.127 36.3996C13.7668 36.6864 13.4426 37.009 13.0823 37.2957C12.0016 38.156 10.8849 39.0162 9.80428 39.8764C9.80428 39.8046 9.87633 39.7328 9.94838 39.697ZM10.6327 39.303L9.22789 40.4856L9.1919 40.5215V40.4498C9.1919 40.4139 9.22789 40.4139 9.22789 40.4139C9.26395 40.378 9.30001 40.378 9.33592 40.3422C9.37206 40.3063 9.40812 40.3063 9.44403 40.2706C9.91239 39.9123 10.4167 39.5179 10.8849 39.1237C10.7768 39.1953 10.7048 39.2313 10.6327 39.303ZM13.9828 36.794L12.7942 37.7617C12.2537 38.1919 11.7495 38.6219 11.2091 39.0521C11.2812 38.9803 11.3532 38.9445 11.3892 38.9086C11.6054 38.7653 11.7854 38.5861 11.9656 38.4426L12.7221 37.7975C12.9742 37.5826 13.2264 37.3315 13.4785 37.1524C13.7306 36.9373 14.0189 36.7223 14.3071 36.5431C14.235 36.579 14.0909 36.6864 13.9828 36.794ZM13.9468 36.7222C13.9468 36.6864 13.9828 36.6864 14.0189 36.6507C14.199 36.5072 14.3791 36.328 14.5952 36.1847C14.7753 36.0414 14.9914 35.8621 15.1716 35.7187C15.1716 35.7547 15.0995 35.7905 15.0635 35.8264C14.7033 36.113 14.3071 36.4355 13.9468 36.7222ZM14.9915 37.0091C15.0635 36.9015 15.1355 36.794 15.2437 36.6866C15.2796 36.6508 15.2796 36.6148 15.3157 36.579C15.3518 36.5431 15.3878 36.5431 15.4237 36.5072C15.6398 36.3282 15.8921 36.1489 16.1082 35.9697C15.7479 36.2923 15.3877 36.6507 14.9915 37.0091ZM15.82 30.5576L15.7119 30.6651C15.7119 30.6651 15.7479 30.6292 15.7479 30.5933L16.1802 30.1634C16.2523 30.0916 16.3603 30.0199 16.4324 29.9125C16.7565 29.5899 17.0808 29.2673 17.405 28.9089C17.8012 28.4787 18.1974 28.0846 18.5937 27.6544L18.8458 27.4036C18.918 27.3318 18.9899 27.2244 19.098 27.1527C19.2061 27.0092 19.3501 26.9018 19.4582 26.7942C19.4943 26.7585 19.5304 26.6866 19.5663 26.6866C19.5663 26.6866 19.6022 26.6867 19.6384 26.7226C19.4221 26.9735 19.17 27.2244 18.9539 27.4753L19.7103 26.7226C19.7825 26.7585 19.8185 26.7585 19.8905 26.7942C19.6384 27.081 19.3862 27.296 19.134 27.5826C19.134 27.6187 19.098 27.6187 19.098 27.6544C19.098 27.6903 19.062 27.6903 19.062 27.7261L18.9539 27.8337C17.8732 28.6939 16.8287 29.6258 15.82 30.5576ZM20.2507 24.9304L19.9986 25.1814C19.9625 25.1814 19.9625 25.1814 19.9264 25.1455C20.0345 25.038 20.1426 24.9663 20.2507 24.8946C20.2867 24.8946 20.2507 24.9304 20.2507 24.9304ZM20.2867 26.3641C20.2867 26.4 20.2507 26.4 20.2507 26.4358C20.2027 26.4836 20.1548 26.5314 20.1067 26.5791C20.0345 26.5791 19.9986 26.5434 19.9266 26.5075C19.8905 26.5075 19.9266 26.5075 19.9266 26.4716C19.9625 26.3999 20.0345 26.364 20.1067 26.2924C20.1787 26.2924 20.2147 26.3282 20.2867 26.3641ZM19.9626 26.2564H19.9986C19.9264 26.3282 19.8905 26.3999 19.8185 26.4716H19.7824C19.7824 26.4357 19.8185 26.4357 19.8185 26.4357C19.8906 26.3639 19.9267 26.2922 19.9626 26.2564ZM18.2334 32.8872C18.1975 32.9588 18.1253 32.9947 18.0533 33.0305C17.8732 33.1738 17.693 33.3173 17.549 33.4606C17.5851 33.389 17.6212 33.353 17.6571 33.2814C17.6571 33.2455 17.693 33.2455 17.693 33.2097C17.7292 33.1738 17.7652 33.1381 17.8373 33.1022C17.9453 33.0663 18.0894 32.9946 18.2334 32.8872ZM20.2867 31.561L17.1529 34.0341C17.2248 33.9265 17.2969 33.8191 17.405 33.7474C17.7292 33.4606 18.0894 33.1381 18.4497 32.8513C18.5576 32.7438 18.7018 32.6363 18.8458 32.5288C19.4221 32.1704 19.9625 31.7761 20.5029 31.4176C20.3948 31.4536 20.3227 31.4893 20.2867 31.561ZM20.611 23.6759C20.3227 23.604 20.0345 23.4966 19.7824 23.4249C19.7465 23.4249 19.8185 23.389 19.8185 23.389C20.1067 23.4607 20.3949 23.5684 20.611 23.6759C20.6471 23.6759 20.6471 23.6399 20.611 23.6759ZM20.6469 21.9195C20.6469 21.9195 20.5749 21.8836 20.5389 21.8836C20.2867 21.8119 20.0706 21.7401 19.8185 21.6327C20.0706 21.5252 20.3589 21.3819 20.5749 21.2743C20.6471 21.4176 20.719 21.5969 20.7911 21.7403C20.7911 21.776 20.755 21.776 20.719 21.8118C20.719 21.8477 20.683 21.8838 20.6469 21.9195ZM20.683 30.5573C20.7911 30.4498 20.8631 30.3781 20.9712 30.3065C21.2234 30.0913 21.5114 29.8763 21.7997 29.6612L21.6195 29.8404C22.304 29.267 23.0245 28.6578 23.7089 28.0843C23.817 28.1202 23.889 28.156 23.9971 28.1919C22.9163 28.9803 21.7997 29.7687 20.683 30.5573ZM24.5373 27.6901C24.4294 27.7976 24.3572 27.905 24.2492 27.9767C24.1411 27.9408 24.0691 27.905 23.961 27.8691C24.0691 27.7616 24.2132 27.6541 24.3213 27.5466C24.3932 27.5825 24.5014 27.5825 24.5734 27.6183C24.5734 27.6542 24.5373 27.6544 24.5373 27.6901ZM24.3572 15.2886C24.3572 15.2527 24.3213 15.217 24.3213 15.1811V14.8945C24.5734 15.3962 24.7896 15.898 25.0057 16.364C25.0057 16.5431 25.0416 16.7223 25.0416 16.9015C24.8255 16.364 24.5733 15.8263 24.3572 15.2886ZM26.9508 30.7724V31.3099C26.6627 30.7723 26.4105 30.2346 26.1224 29.6971C26.1584 29.733 26.1945 29.7687 26.2305 29.8404C26.4826 30.1272 26.7347 30.4498 26.9508 30.7724ZM26.1584 28.1199C26.1944 28.1917 26.2305 28.2993 26.2664 28.371C26.1944 28.2634 26.1224 28.1917 26.0503 28.0841C26.0863 28.12 26.1224 28.1199 26.1584 28.1199ZM25.6179 16.0773C25.6901 16.2207 25.7622 16.3999 25.8702 16.579V16.7582C25.798 16.579 25.7262 16.3999 25.6181 16.2207L25.6179 16.0773ZM25.7262 17.1525C25.6901 17.1166 25.654 17.045 25.654 17.0091V16.83C25.654 16.6866 25.654 16.5073 25.6181 16.364C25.654 16.4716 25.7262 16.6149 25.7982 16.7224C25.8342 16.7583 25.8702 16.83 25.8702 16.8657V17.1884C25.8702 17.2242 25.798 17.26 25.7621 17.26C25.7621 17.26 25.7621 17.1884 25.7262 17.1525ZM25.7982 29.2311C25.8342 29.2311 25.8342 29.267 25.8702 29.3028C25.8702 29.3387 25.9061 29.3387 25.9423 29.3744C25.9423 29.4103 25.9423 29.4461 25.9783 29.4461C26.0142 29.5178 26.0503 29.6253 26.0863 29.697C25.9422 29.5537 25.8702 29.4103 25.7982 29.2311ZM26.4826 32.4568C26.4104 32.3134 26.2664 31.9551 26.1224 31.489C26.0863 31.3099 26.0502 31.1665 26.0142 30.9873C26.3024 31.4891 26.5907 32.0984 26.8788 32.6359C26.9149 32.7077 26.951 32.7793 26.9869 32.8869V33.4604C26.8068 33.0661 26.5907 32.6361 26.4826 32.4568ZM33.4348 39.4101C33.507 39.5176 33.6149 39.661 33.6869 39.7685C33.9392 40.0911 34.1913 40.4136 34.4074 40.7363C34.5155 40.9153 34.6596 41.0587 34.7316 41.2738C34.7316 41.3097 34.6957 41.2379 34.6957 41.2379C34.4436 40.9512 34.1913 40.6645 33.9752 40.3778C33.723 40.0552 33.5429 39.661 33.3268 39.3026L33.4348 39.4101ZM30.1208 26.3995C30.5171 26.507 30.9493 26.6145 31.3457 26.722L31.3095 26.758C30.9134 26.6504 30.5172 26.507 30.1208 26.3995ZM30.7332 28.3707C30.5531 28.3349 30.4089 28.2632 30.2288 28.2275C30.1568 28.0841 30.0848 27.9766 30.0127 27.8332C30.1929 27.9049 30.373 27.9408 30.5531 27.9766C30.6252 28.1199 30.6971 28.2275 30.7332 28.3707ZM30.8053 25.7544C30.4091 25.6468 30.0127 25.5036 29.6166 25.396L29.5084 25.181C29.5805 25.181 29.6166 25.2169 29.6525 25.2527C30.0487 25.4318 30.445 25.575 30.8053 25.7544ZM29.9767 23.7472C29.8687 23.8548 29.7606 23.9265 29.6526 24.034C29.3643 23.8906 29.0762 23.7472 28.752 23.6398C28.6439 23.4247 28.5719 23.2096 28.4638 23.0304C28.4998 22.9587 28.5719 22.9228 28.6439 22.887C29.1843 23.102 29.7606 23.3171 30.3008 23.4963C30.2288 23.568 30.1207 23.6397 29.9767 23.7472ZM29.2563 25.2884C29.1482 25.2525 29.0042 25.2168 28.8961 25.1809L29.0762 25.0016H29.1121C29.1482 25.0734 29.2202 25.1809 29.2563 25.2884ZM28.788 24.8225C28.752 24.8583 28.716 24.8943 28.6439 24.93L28.6079 24.9659C28.5719 24.8583 28.5358 24.7866 28.4998 24.6791C28.5719 24.7509 28.6798 24.7865 28.788 24.8225ZM30.8412 22.9946C30.2649 22.8154 29.6886 22.6004 29.1482 22.4211C29.1121 22.4211 29.1482 22.3853 29.1843 22.3853C29.2202 22.3853 29.2202 22.3494 29.2563 22.3494C29.7966 22.5644 30.373 22.7436 30.9132 22.9587C30.8773 22.9587 30.8412 22.9946 30.8412 22.9946ZM32.9305 23.568C34.1192 23.9622 36.3527 24.7507 37.5774 25.1451C37.6134 25.1451 37.6495 25.181 37.6855 25.181C37.7215 25.181 37.7576 25.181 37.7936 25.2169C37.7574 25.2528 37.6855 25.2528 37.6495 25.2169C37.6134 25.2169 37.5774 25.181 37.5774 25.181C36.3527 24.7868 34.1191 23.9981 32.9305 23.568ZM37.1811 25.181C37.2173 25.181 37.2892 25.2169 37.3252 25.2169C37.4333 25.2528 37.5774 25.3245 37.7214 25.3602C37.7575 25.3602 37.7936 25.3602 37.7936 25.3961C37.3252 25.2169 35.7763 24.7152 35.344 24.5359C33.9392 24.0342 32.5703 23.5681 31.1655 23.0664C31.1655 23.0305 31.2014 23.0305 31.2375 23.0305C32.8224 23.6398 35.5241 24.6076 37.1811 25.181ZM40.9275 14.6436C40.8553 14.7152 40.7474 14.7869 40.6393 14.8586C39.9188 15.3963 39.2344 15.9338 38.55 16.4714C36.9651 17.7258 35.4521 19.0163 33.9392 20.3424C33.2187 20.9876 32.4623 21.5967 31.7418 22.2419C31.7058 22.2779 31.7058 22.2779 31.6696 22.2779C31.0934 22.0986 30.5531 21.8836 29.9767 21.7044C29.9767 21.7044 29.9767 21.6685 30.0127 21.6685C30.0849 21.5969 30.1929 21.5252 30.2649 21.4534C30.5531 21.2025 30.8773 20.9159 31.1655 20.665C31.3816 20.4858 31.5617 20.3066 31.7779 20.1272C31.8858 20.0557 31.9579 19.9481 32.066 19.8764C32.5703 19.4464 33.1106 19.0163 33.6149 18.6221C33.7231 18.5503 33.8311 18.4786 33.9752 18.4069C36.2085 17.1166 38.55 15.8981 40.9275 14.6436ZM41.756 13.5325C40.9636 13.9626 40.171 14.3568 39.3786 14.7869C39.2705 14.8586 39.1624 14.8945 39.0543 14.9661C38.3698 15.3245 37.6855 15.683 37.0371 16.0413C37.0731 16.0055 37.1092 15.9696 37.1811 15.9337C37.8656 15.4677 38.5861 15.0736 39.3064 14.6793C39.5226 14.5718 39.7026 14.4642 39.9188 14.3926C40.135 14.285 40.315 14.2133 40.5312 14.1059C40.9274 13.8908 41.3237 13.7119 41.756 13.5325ZM43.3049 10.9518C43.3771 10.9518 43.4491 10.9158 43.5211 10.9158C43.6629 10.8799 43.8115 10.8799 43.9534 10.9158C43.9893 10.9158 44.0254 10.9159 44.0254 10.9518H44.1335C44.1695 10.9518 44.2415 11.0235 44.2776 11.0593C44.3857 11.1311 44.4577 11.2389 44.5297 11.3465C44.5658 11.4181 44.6018 11.4537 44.6018 11.5253V11.7762C44.5297 12.2422 44.1335 12.4572 43.7733 12.6364C43.7372 12.6364 43.7011 12.6723 43.7011 12.6723C43.6652 12.6723 43.6291 12.7082 43.5931 12.7082C43.5571 12.7441 43.4491 12.7799 43.4491 12.7799C43.4131 12.7799 43.3769 12.744 43.3049 12.744C43.3771 12.7081 43.485 12.6722 43.5211 12.6364C43.8167 12.4747 44.0944 12.2825 44.3495 12.063C44.4577 11.9554 44.5297 11.7762 44.5297 11.5969C44.5297 11.3819 44.3857 11.2028 44.2776 11.0952C44.2415 11.0593 44.2054 10.9876 44.1335 10.9876C44.0613 10.9517 43.9893 10.9158 43.9173 10.9158C43.7012 10.8801 43.449 10.9159 43.269 10.9519C42.8728 11.0235 42.4765 11.1311 42.1162 11.2385C41.6119 11.382 41.1436 11.5612 40.6754 11.7404C41.4677 11.4537 42.4044 11.131 43.3049 10.9518ZM39.3425 13.4607L39.4506 13.3533C39.4506 13.3533 39.4145 13.3174 39.3784 13.2457C39.6666 13.0665 39.991 12.8515 40.3152 12.7079C40.6393 12.5647 40.9995 12.4572 41.3598 12.3137C41.9002 12.1347 42.4404 11.9554 43.0167 11.7762C43.1608 11.7403 43.269 11.7044 43.4131 11.6686C43.4852 11.6686 43.5571 11.6686 43.5931 11.6327V11.6686C43.485 11.7762 43.3049 11.8478 43.1608 11.9195C42.8367 12.0987 42.5124 12.242 42.1882 12.3855L41.6479 12.6005L41.1076 12.8155C40.6034 13.0306 39.6666 13.4607 39.5947 13.5324C39.2344 13.7116 38.8382 13.9265 38.5141 14.1058C38.622 13.9982 38.8021 13.8549 38.9824 13.7116C39.1265 13.6757 39.2344 13.5683 39.3425 13.4607ZM28.8959 19.9839C29.0402 19.8763 29.1843 19.733 29.2922 19.6613C29.8328 19.1953 30.3369 18.7653 30.8773 18.3351C31.0213 18.2275 31.1294 18.1201 31.2735 18.0126C31.6696 17.69 32.03 17.3316 32.4263 16.9732C33.4348 16.0411 34.4436 15.1452 35.4882 14.2133C35.9924 13.7474 36.4968 13.2813 37.0371 12.8514C37.8009 12.1632 38.5816 11.494 39.3786 10.8442C39.6666 10.6292 39.9549 10.4141 40.2431 10.2349C39.8108 10.9876 39.1624 11.561 38.5141 12.0987C38.3698 12.2062 38.2619 12.3137 38.1178 12.4211C37.6495 12.8514 37.1452 13.2456 36.6408 13.6756L36.6049 13.7116C36.3527 13.9267 36.0645 14.1776 35.7763 14.4285C35.2719 14.8586 34.7316 15.2887 34.1913 15.7547C33.6871 16.2207 33.1467 16.6506 32.6424 17.0809C32.377 17.3063 32.1128 17.5333 31.8499 17.7617C31.3457 18.1918 30.8053 18.6578 30.301 19.0879C29.5444 19.7689 28.716 20.3782 27.9234 21.0592C27.8875 21.0592 27.7794 21.0233 27.7433 20.9874V20.9518C27.7433 20.9159 27.8155 20.9159 27.8155 20.88C28.1756 20.5933 28.5357 20.2707 28.8959 19.9839ZM28.3557 23.4248C28.2837 23.3889 28.1756 23.3531 28.1035 23.3172C28.1397 23.2813 28.2116 23.2456 28.2476 23.2097L28.3557 23.4248ZM28.8961 18.7653C28.4999 19.1596 28.1397 19.518 27.7794 19.9124L27.7433 19.9483C27.7433 19.9483 27.7433 19.9842 27.7074 19.9842C27.7074 19.9842 27.6713 19.9483 27.7074 19.9483L27.7433 19.9124C28.5358 19.1596 29.3284 18.3712 30.1208 17.5826C29.7247 17.9411 29.2922 18.371 28.8961 18.7653ZM27.2391 16.9736V16.8303C27.2391 16.7943 27.3111 16.7584 27.3471 16.7227C27.4552 16.6152 27.5632 16.5076 27.6713 16.4359C28.1035 16.0417 28.5719 15.6475 29.0042 15.2532C29.1482 15.1098 29.2922 15.0023 29.4365 14.8589C29.5084 14.7872 29.5805 14.7155 29.6525 14.6796C30.0127 14.3572 30.4089 14.0345 30.7692 13.712C30.1929 14.3213 29.5805 14.9664 29.0042 15.5757C28.5719 16.0417 28.1035 16.5077 27.6713 16.9736C27.5273 17.1169 27.3831 17.2961 27.239 17.4396L27.2391 16.9736ZM27.2751 19.0524C27.2751 19.0165 27.383 18.9089 27.4552 18.8732C27.8514 18.479 28.2116 18.0488 28.6079 17.6546C28.7879 17.4753 28.932 17.2961 29.1121 17.1169C29.3643 16.8301 29.6526 16.5434 29.9407 16.2567C30.3369 15.8266 30.6971 15.4324 31.0934 15.038L31.2735 14.8588C31.7058 14.3928 32.1741 13.9629 32.6424 13.4969C32.8585 13.2819 33.1108 13.0668 33.3268 12.8159C34.0056 12.1405 34.7023 11.4832 35.416 10.8446C35.5241 10.7371 35.6683 10.6297 35.7763 10.5221L36.857 9.5543C37.1091 9.3393 37.3613 9.12422 37.6134 8.94499C37.8656 8.72999 38.1177 8.55075 38.3698 8.33568C37.037 9.73353 35.6683 11.0955 34.2993 12.4933C33.9753 12.8518 33.615 13.1743 33.2908 13.5327L33.1106 13.712C33.0747 13.7479 33.0747 13.7836 33.0386 13.8195L28.1397 18.6937C27.9595 18.8729 27.7794 19.0162 27.6352 19.1955L27.4911 19.3388L27.4552 19.3747C27.3471 19.1956 27.2751 19.1599 27.2751 19.0524ZM27.6352 28.6936L28.0314 29.267C27.8875 29.2312 27.7794 29.1953 27.6352 29.1237V28.6936ZM29.7245 36.6863C29.7245 36.7222 29.6886 36.6505 29.6886 36.6505C29.5444 36.3638 29.3643 36.0412 29.2202 35.7187C29.0401 35.3961 28.8961 35.0734 28.716 34.7509C28.3918 34.1058 28.0315 33.4606 27.7074 32.8156C27.7074 32.4929 27.6713 32.1345 27.6713 31.8119C28.3918 33.389 29.0762 35.0375 29.7245 36.6863ZM30.589 34.2491L29.9407 33.3889C29.3284 32.5288 28.68 31.7045 28.0675 30.8442C28.0315 30.7724 27.9595 30.6651 27.9234 30.5575C27.8514 30.3783 27.7794 30.199 27.7074 29.984C27.7074 29.9481 27.6713 29.9122 27.6713 29.8765V29.3746C27.8875 29.4464 28.0675 29.518 28.2837 29.5538L30.0488 32.0987C30.1929 32.8154 30.3729 33.5323 30.589 34.2491ZM30.4089 28.5503C30.373 28.5144 30.4089 28.5144 30.4089 28.5503C30.5171 28.5503 30.6611 28.5862 30.8051 28.6221C30.8412 28.6221 30.9134 28.6578 30.9134 28.6936C30.7332 28.6577 30.589 28.6219 30.4089 28.5503ZM33.0747 37.4389C32.6063 36.8655 32.138 36.2564 31.6696 35.6827L31.5617 35.5752C31.5256 35.5393 31.5256 35.4677 31.4895 35.396C31.2735 34.8584 31.0934 34.3207 30.9134 33.7831L33.0747 37.4389ZM31.8139 30.5573C31.6696 30.5215 31.4897 30.4497 31.3457 30.414L31.0213 29.7689C31.2014 29.8048 31.3457 29.8765 31.4897 29.9122L31.8139 30.5573ZM43.8453 31.8117C43.8813 31.776 43.9175 31.776 43.9534 31.776C43.9893 31.8476 43.9893 31.9552 43.9534 32.0626C43.9534 32.1344 43.9173 32.2419 43.8453 32.2777C43.8092 32.2777 43.7012 32.2777 43.6291 32.2418C42.6205 31.9909 41.6479 31.7042 40.6393 31.4534L38.2619 30.8082C36.1726 30.2346 34.0472 29.6253 31.9579 29.0519C31.7418 28.9803 31.5256 28.9444 31.3095 28.8727H31.2735C31.2014 28.8368 31.1294 28.8727 31.1294 28.801C31.3816 28.8728 31.6337 28.9444 31.9218 29.0162C32.7144 29.2311 33.4709 29.4462 34.2634 29.6255C35.3081 29.9121 36.3527 30.163 37.3974 30.4498C38.4419 30.7007 39.4866 30.9874 40.5312 31.2741L41.2878 31.4892C41.6839 31.5967 42.0801 31.7042 42.4763 31.776C42.6207 31.8119 42.7286 31.8476 42.8726 31.8836C43.1248 31.9552 43.3769 32.0626 43.6291 32.1345C43.6652 32.0986 43.6652 32.0626 43.6652 32.0269C43.6652 31.9551 43.593 31.9551 43.5211 31.9551C43.7012 31.9194 43.7733 31.8835 43.8453 31.8117ZM43.5571 31.8836C43.5931 31.8836 43.5931 31.8836 43.5931 31.9193C43.5931 31.8834 43.5571 31.8836 43.5571 31.8836ZM41.9361 31.3817C42.0442 31.4176 42.0801 31.4175 42.1523 31.4534C42.6207 31.5966 43.0889 31.7402 43.5571 31.8836C43.485 31.8836 43.413 31.8834 43.3049 31.8475C43.269 31.8475 43.197 31.8116 43.1608 31.7758C42.8006 31.6325 42.4044 31.525 42.0081 31.4174C42.1162 31.4533 42.2243 31.4892 42.2963 31.5249C42.1882 31.5249 42.1162 31.4892 42.0081 31.4533C41.3237 31.2383 40.6393 31.0232 39.991 30.844C39.2344 30.5931 38.4419 30.378 37.6855 30.1272C39.0903 30.5214 40.4952 30.9515 41.9361 31.3817ZM34.0113 29.0162C34.1194 29.052 34.2273 29.0878 34.2993 29.1237C34.8037 29.3029 35.3081 29.482 35.8123 29.6255C37.4333 30.1272 39.0903 30.629 40.7113 31.1667C37.5053 30.3065 34.2993 29.4103 31.0934 28.5143C31.0574 28.4785 31.0574 28.4427 31.0574 28.4068C31.0213 28.2993 30.9493 28.2276 30.9134 28.12C31.3457 28.2276 31.7418 28.371 32.1741 28.4785C32.7504 28.6577 33.3628 28.801 34.0113 29.0162ZM35.4521 26.9373C35.4521 26.8654 35.416 26.7939 35.3799 26.7222C37.6855 26.6505 41.6119 26.543 42.4044 26.6505C43.1968 26.7223 38.1897 26.8656 35.4521 26.9373Z" fill="#001E00"/>
<path id="Vector_2" d="M61.4973 18.5144C63.8747 19.2313 65.4597 20.3424 65.4597 22.8154C65.4597 25.7545 62.722 27.6899 59.8041 27.6899C57.2827 27.6899 54.9412 26.6506 53.5364 24.8584L55.3375 22.7438C56.7062 24.3566 58.1832 25.0735 59.8763 25.0735C61.2451 25.0735 62.5059 24.4283 62.5059 23.138C62.5059 22.1345 61.9655 21.5968 60.6687 21.2383L58.0391 20.4499C55.8417 19.8047 54.3288 18.6937 54.3288 16.328C54.3288 13.8192 56.5981 11.7046 59.7322 11.7046C62.0377 11.7046 63.9467 12.5648 65.2075 13.8909L63.5144 16.113C62.4338 15.0019 61.1731 14.3209 59.6962 14.3209C58.2912 14.3209 57.3186 15.0736 57.3186 16.113C57.3186 17.0091 57.931 17.475 59.0117 17.7975L61.4973 18.5144Z" fill="#001E00"/>
<path id="Vector_3" d="M69.9968 18.6221H70.0329C70.5372 17.7619 71.6898 17.0093 73.1306 17.0093C75.8683 17.0093 78.0298 19.1957 78.0298 22.3496C78.0298 25.468 75.8683 27.69 73.1306 27.69C71.6899 27.69 70.5012 26.9016 70.0329 26.0414H69.9968V31.4536H67.1511V17.2602H69.9968V18.6221ZM72.5904 25.1453C74.1757 25.1453 75.256 23.8191 75.256 22.3138C75.256 20.8443 74.1757 19.4824 72.5904 19.4824C71.0056 19.4824 69.9248 20.8085 69.9248 22.3138C69.9248 23.8191 70.9694 25.1453 72.5904 25.1453Z" fill="#001E00"/>
<path id="Vector_4" d="M83.3603 21.3103L85.7735 21.131C85.7735 20.0917 85.053 19.4464 83.612 19.4464C82.5316 19.4464 81.4152 19.9482 80.6586 20.4858L79.6857 18.407C80.5865 17.7619 82.3153 17.0093 84.1168 17.0093C86.962 17.0093 88.5472 18.6938 88.5472 21.2744V27.4034H85.8095V26.1131H85.7735C85.4496 26.7582 84.2604 27.6542 82.784 27.6542C80.7668 27.6542 79.2177 26.5432 79.2177 24.536C79.2177 22.5288 81.2349 21.4894 83.3603 21.3103ZM85.7735 22.9948L83.8644 23.174C82.6398 23.2816 81.8472 23.6041 81.8472 24.4284C81.8472 25.1453 82.5677 25.5395 83.3964 25.5395C84.6931 25.5395 85.7735 24.7152 85.7735 23.2816V22.9948Z" fill="#001E00"/>
<path id="Vector_5" d="M93.5568 22.2423V27.4034H90.7109V17.2602H93.5568V18.9807H93.5929C93.9888 17.9053 95.0339 17.0811 96.2224 17.0811C96.4388 17.0811 96.7266 17.1169 96.9069 17.1527V20.0918C96.6191 19.9842 96.2224 19.9125 95.7904 19.9125C94.4576 19.8766 93.5568 20.8085 93.5568 22.2423Z" fill="#001E00"/>
<path id="Vector_6" d="M101.442 27.4027H98.5967V11.9551H101.442V21.704L105.404 17.2596H108.718L104.468 21.919L108.862 27.4027H105.404L101.442 22.2415V27.4027Z" fill="#001E00"/>
<path id="Vector_7" d="M115.421 21.9197H119.456V20.9879H116.826L119.347 18.2999V17.2604H115.565V18.1923H117.978L115.457 20.8804V21.9197H115.421ZM110.414 21.9197H111.567V19.375C111.567 19.2317 111.603 19.0525 111.639 18.909C111.674 18.7657 111.746 18.6224 111.855 18.5148C111.927 18.4072 112.071 18.2998 112.179 18.228C112.323 18.1564 112.467 18.1205 112.683 18.1205C112.864 18.1205 113.008 18.1564 113.151 18.228C113.26 18.2998 113.368 18.4072 113.404 18.5148C113.476 18.6224 113.512 18.7657 113.548 18.909C113.584 19.0525 113.584 19.1958 113.584 19.3392V21.9199H114.737V19.0165C114.737 18.7657 114.701 18.5505 114.628 18.3356C114.556 18.1206 114.448 17.9055 114.305 17.7262C114.16 17.5471 113.98 17.4037 113.764 17.2962C113.548 17.1886 113.296 17.1528 112.972 17.1528C112.611 17.1528 112.323 17.2245 112.071 17.4037C111.819 17.583 111.639 17.7979 111.531 18.013H111.495V17.2604H110.414V21.9197Z" fill="#001E00"/>
</g>
<defs>
<clipPath id="clip0_2_152">
<rect width="119" height="43" fill="white" transform="translate(0.455566 0.5)"/>
</clipPath>
</defs>
</svg>
