<?xml version="1.0" standalone="no"?>
<!DOCTYPE svg PUBLIC "-//W3C//DTD SVG 20010904//EN"
 "http://www.w3.org/TR/2001/REC-SVG-20010904/DTD/svg10.dtd">
<svg version="1.0" xmlns="http://www.w3.org/2000/svg"
 width="206.000000pt" height="95.000000pt" viewBox="0 0 206.000000 95.000000"
 preserveAspectRatio="xMidYMid meet">
<metadata>
Created by potrace 1.10, written by Peter Selinger 2001-2011
</metadata>
<g transform="translate(0.000000,95.000000) scale(0.100000,-0.100000)"
fill="#000000" stroke="none">
<path d="M1435 420 c0 -138 0 -140 23 -140 13 0 22 6 22 16 0 14 1 14 16 0 25
-26 79 -20 103 10 29 36 29 112 1 142 -22 24 -68 29 -101 12 -18 -10 -19 -7
-19 45 0 50 -2 55 -22 55 -23 0 -23 -1 -23 -140z m129 4 c33 -32 9 -114 -32
-114 -29 0 -52 32 -52 71 0 54 49 79 84 43z"/>
<path d="M363 520 c-38 -23 -63 -67 -63 -110 l0 -32 130 4 c72 2 130 0 130 -3
0 -3 -8 -13 -18 -22 -14 -13 -39 -17 -103 -17 -82 0 -86 -1 -114 -30 l-29 -30
110 0 c151 0 203 29 219 123 l6 37 -137 0 c-136 0 -137 0 -119 20 15 17 31 20
105 20 83 0 87 1 115 30 l29 30 -115 0 c-95 0 -119 -3 -146 -20z"/>
<path d="M640 410 l0 -130 30 0 30 0 0 100 0 100 106 0 c95 0 105 -2 102 -17
-3 -15 -16 -19 -77 -21 -64 -3 -76 -6 -98 -30 l-25 -27 88 -3 c105 -3 127 1
154 30 27 30 26 73 -5 103 -23 24 -29 25 -165 25 l-140 0 0 -130z"/>
<path d="M1060 410 l0 -130 80 0 c73 0 80 2 80 20 0 18 -7 20 -55 20 l-55 0 0
110 0 110 -25 0 -25 0 0 -130z"/>
<path d="M1257 452 c-10 -10 -17 -24 -17 -30 0 -18 37 -14 44 4 9 25 60 14 64
-13 3 -20 -1 -23 -35 -23 -71 0 -108 -54 -65 -93 22 -20 73 -22 90 -5 9 9 12
9 12 0 0 -7 11 -12 23 -12 23 0 24 1 19 83 -2 45 -9 88 -14 95 -16 19 -102 15
-121 -6z m93 -100 c0 -38 -61 -60 -74 -26 -9 23 -8 24 17 34 36 14 57 12 57
-8z"/>
<path d="M1656 447 c-28 -42 -1 -78 69 -89 12 -2 20 -11 20 -23 0 -26 -44 -34
-57 -11 -10 17 -48 22 -48 6 0 -23 41 -50 76 -50 54 0 74 15 74 55 0 38 -8 46
-65 60 -23 7 -40 17 -40 25 0 18 43 26 58 11 13 -13 47 -15 47 -3 0 21 -39 42
-78 42 -32 0 -45 -5 -56 -23z"/>
</g>
</svg>
