<svg width="38" height="36" viewBox="0 0 38 36" fill="none" xmlns="http://www.w3.org/2000/svg">
<path id="Vector" d="M29.5024 15.9429C23.5874 12.4457 13.8697 12.1371 8.27156 13.8857C7.32093 14.1943 6.47592 13.68 6.15904 12.7543C5.94779 11.9314 6.37029 11.0057 7.32093 10.6971C13.7641 8.74286 24.538 9.05143 31.2981 13.0629C32.1431 13.5771 32.3544 14.6057 31.9319 15.3257C31.4037 16.1486 30.3474 16.4571 29.5024 15.9429ZM29.2912 21.0857C28.8687 21.7029 28.0237 21.9086 27.3899 21.6C21.8974 18.5143 15.2429 17.7943 9.2222 19.5429C8.48281 19.7486 7.63781 19.3371 7.42656 18.6171C7.21531 17.8971 7.63781 17.0743 8.37719 16.8686C15.2429 14.9143 22.6367 15.7371 28.8687 19.1314C29.5024 19.5429 29.7137 20.3657 29.2912 21.0857ZM27.073 26.0229C26.7562 26.5371 26.0167 26.7429 25.4886 26.4343C21.1579 23.8629 15.771 23.2457 9.43346 24.6857C8.7997 24.7886 8.16594 24.48 8.06031 23.8629C7.95469 23.2457 8.27156 22.6286 8.90533 22.5257C15.8767 20.9829 21.7917 21.6 26.6505 24.5829C27.2842 24.7886 27.3899 25.4057 27.073 26.0229ZM18.7286 0C8.58845 0 0.455228 8.12571 0.455228 18C0.349602 27.8743 8.58845 35.8971 18.7286 36C28.8687 35.8971 37.0019 27.8743 37.0019 18C37.1075 8.12571 28.8687 0.102857 18.7286 0Z" fill="#001E00"/>
</svg>
