<svg width="105" height="48" viewBox="0 0 105 48" fill="none" xmlns="http://www.w3.org/2000/svg">
<g id="asset 13" clip-path="url(#clip0_2_112)">
<path id="Vector" d="M25.9771 17.8994H39.1293L37.9213 21.6919H34.5127V35.7127H30.2576V21.6919L25.9835 21.6983L25.9771 17.8994Z" fill="#001E00"/>
<path id="Vector_2" d="M60.6743 17.8994H74.1342L72.9293 21.6919H69.2163V35.7127H64.958V21.6919L60.6806 21.6983L60.6743 17.8994Z" fill="#001E00"/>
<path id="Vector_3" d="M39.9346 23.5659H44.1485V35.7127H39.9568L39.9346 23.5659Z" fill="#001E00"/>
<path id="Vector_4" d="M45.8259 17.855H50.0398V26.1519L54.2125 22.021H59.2381L53.9557 27.183L59.8692 35.7129H55.2304L51.2828 29.8007L50.0335 31.0202V35.7129H45.8196V17.855H45.8259Z" fill="#001E00"/>
<path id="Vector_5" d="M90.4568 17.855H94.6704V26.1519L98.8432 22.021H103.869L98.5864 27.183L104.5 35.7129H99.868L95.92 29.8007L94.6704 31.0202V35.7129H90.4568V17.855Z" fill="#001E00"/>
<path id="Vector_6" d="M42.0362 22.1806C42.4567 22.1812 42.8678 22.0562 43.2177 21.8214C43.5675 21.5866 43.8403 21.2526 44.0015 20.8617C44.1627 20.4707 44.205 20.0404 44.1232 19.6252C44.0413 19.21 43.8389 18.8286 43.5416 18.5293C43.2443 18.23 42.8655 18.0262 42.4531 17.9438C42.0407 17.8614 41.6133 17.904 41.225 18.0662C40.8367 18.2286 40.505 18.5032 40.2718 18.8554C40.0386 19.2076 39.9144 19.6216 39.915 20.0449C39.9146 20.3254 39.9692 20.6034 40.0757 20.8626C40.1821 21.122 40.3383 21.3576 40.5354 21.556C40.7325 21.7544 40.9665 21.9117 41.224 22.0188C41.4816 22.126 41.7576 22.181 42.0362 22.1806Z" fill="#001E00"/>
<path id="Vector_7" d="M80.7457 21.1714C79.3166 21.1701 77.9195 21.5955 76.7308 22.3939C75.5422 23.1922 74.6154 24.3275 74.0678 25.6562C73.5201 26.9849 73.3762 28.4472 73.6541 29.8583C73.9321 31.2694 74.6195 32.5658 75.6295 33.5835C76.6393 34.6011 77.9263 35.2944 79.3276 35.5755C80.7289 35.8566 82.1817 35.713 83.5017 35.1628C84.8217 34.6125 85.9505 33.6804 86.7441 32.4844C87.5385 31.2884 87.9617 29.8821 87.9617 28.4435C87.9625 27.4888 87.7769 26.5434 87.4145 25.6611C87.0521 24.7788 86.5209 23.9771 85.8505 23.3017C85.1801 22.6263 84.3849 22.0906 83.5089 21.7251C82.6329 21.3595 81.6937 21.1714 80.7457 21.1714ZM80.7457 31.9775C80.0512 31.9775 79.3726 31.7702 78.7954 31.3819C78.2181 30.9935 77.7683 30.4416 77.5026 29.796C77.2369 29.1502 77.1674 28.4396 77.3028 27.7541C77.4383 27.0686 77.7726 26.4389 78.2635 25.9447C78.7543 25.4504 79.3798 25.1139 80.0607 24.9775C80.7417 24.8411 81.4473 24.9111 82.0889 25.1786C82.7297 25.4461 83.2785 25.8991 83.6641 26.4802C84.0497 27.0614 84.2553 27.7446 84.2553 28.4435C84.2561 28.9077 84.1657 29.3675 83.9889 29.7964C83.8129 30.2253 83.5545 30.6151 83.2281 30.9433C82.9025 31.2716 82.5153 31.5319 82.0889 31.7093C81.6633 31.8868 81.2065 31.9779 80.7457 31.9775Z" fill="#001E00"/>
<path id="Vector_8" d="M20.8942 21.7206C20.7008 21.7398 20.5042 21.7494 20.3076 21.7494C19.2513 21.7496 18.2115 21.485 17.2821 20.9794C16.3527 20.474 15.5629 19.7435 14.9839 18.8539V28.7087C14.9839 30.1508 14.5592 31.5605 13.7634 32.7595C12.9677 33.9586 11.8366 34.8931 10.5134 35.445C9.19008 35.9968 7.73394 36.1412 6.32913 35.8599C4.92433 35.5786 3.63393 34.8842 2.62112 33.8644C1.60831 32.8447 0.91859 31.5455 0.639157 30.1312C0.359724 28.7168 0.503134 27.2507 1.05126 25.9185C1.59939 24.5862 2.52762 23.4474 3.71855 22.6462C4.90949 21.845 6.30965 21.4174 7.74198 21.4174C7.89417 21.4174 8.04002 21.4174 8.18905 21.4398V25.0343C8.04114 25.0098 7.8918 24.9948 7.74198 24.9896C7.24757 24.975 6.75527 25.0605 6.29426 25.2409C5.83324 25.4214 5.41287 25.693 5.05804 26.04C4.70321 26.387 4.42113 26.802 4.2285 27.2607C4.03588 27.7194 3.93663 28.2123 3.93663 28.7103C3.93663 29.2083 4.03588 29.7012 4.2285 30.1599C4.42113 30.6186 4.70321 31.0337 5.05804 31.3806C5.41287 31.7275 5.83324 31.9993 6.29426 32.1797C6.75527 32.3601 7.24757 32.4455 7.74198 32.431C9.78392 32.431 11.5881 30.8125 11.5881 28.7566L11.623 12H15.0378C15.1931 13.4937 15.8651 14.8849 16.9363 15.9301C18.0075 16.9754 19.4096 17.608 20.8974 17.7174V21.7111" fill="#001E00"/>
</g>
<defs>
<clipPath id="clip0_2_112">
<rect width="104" height="48" fill="white" transform="translate(0.5)"/>
</clipPath>
</defs>
</svg>
