<svg width="84" height="42" viewBox="0 0 84 42" fill="none" xmlns="http://www.w3.org/2000/svg">
<g id="asset 11" clip-path="url(#clip0_2_97)">
<g id="Clip path group">
<mask id="mask0_2_97" style="mask-type:luminance" maskUnits="userSpaceOnUse" x="0" y="0" width="84" height="42">
<g id="clip0_2438_63801">
<path id="Vector" d="M84 0.5H0V41.5H84V0.5Z" fill="white"/>
</g>
</mask>
<g mask="url(#mask0_2_97)">
<g id="Group">
<path id="Vector_2" d="M83.7308 29.5306L76.1729 21.1145L82.0598 17.0399C82.256 16.8968 82.3875 16.6835 82.4261 16.4457C82.4653 16.2079 82.4082 15.9645 82.2684 15.7676C82.1279 15.5707 81.9152 15.4359 81.6756 15.3921C81.436 15.3484 81.1888 15.3991 80.9871 15.5334L73.332 20.8348V11.8148C73.332 11.5687 73.2336 11.3326 73.0573 11.1585C72.8811 10.9845 72.6428 10.8867 72.3936 10.8867C72.145 10.8867 71.9061 10.9845 71.7305 11.1585C71.5543 11.3326 71.4558 11.5687 71.4558 11.8148V30.1472C71.4558 30.3934 71.5543 30.6294 71.7305 30.8034C71.9061 30.9775 72.145 31.0753 72.3936 31.0753C72.6428 31.0753 72.8811 30.9775 73.0573 30.8034C73.2336 30.6294 73.332 30.3934 73.332 30.1472V23.0977L74.6175 22.1951L82.3297 30.7638C82.4178 30.8606 82.5245 30.9382 82.6436 30.9918C82.7635 31.0455 82.8929 31.0739 83.0244 31.0753C83.2613 31.0831 83.4919 30.9987 83.6668 30.8401C83.7625 30.7619 83.841 30.6654 83.8981 30.5563C83.9546 30.4473 83.9883 30.328 83.998 30.2057C84.0069 30.0833 83.9904 29.9605 83.9505 29.8444C83.9098 29.7284 83.8465 29.6217 83.7632 29.5306H83.7308Z" fill="#001E00"/>
<path id="Vector_3" d="M61.3588 15.1582C59.7382 15.19 58.1966 15.8564 57.0723 17.0112C55.9481 18.166 55.3331 19.7149 55.3623 21.3178V30.1534C55.3623 30.3995 55.4612 30.6356 55.6372 30.8096C55.8131 30.9837 56.0518 31.0814 56.3006 31.0814C56.5495 31.0814 56.7882 30.9837 56.9642 30.8096C57.1402 30.6356 57.239 30.3995 57.239 30.1534V21.3178C57.2171 20.7678 57.3077 20.2192 57.5053 19.7048C57.7029 19.1904 58.0036 18.7207 58.3891 18.324C58.7748 17.9273 59.2374 17.6116 59.7493 17.3961C60.2613 17.1805 60.812 17.0693 61.3684 17.0693C61.9248 17.0693 62.4755 17.1805 62.9875 17.3961C63.4994 17.6116 63.962 17.9273 64.3476 18.324C64.7332 18.7207 65.0339 19.1904 65.2315 19.7048C65.4291 20.2192 65.5197 20.7678 65.4978 21.3178V30.1534C65.4978 30.3995 65.5966 30.6356 65.7726 30.8096C65.9486 30.9837 66.1872 31.0814 66.4361 31.0814C66.685 31.0814 66.9236 30.9837 67.0996 30.8096C67.2756 30.6356 67.3745 30.3995 67.3745 30.1534V21.3178C67.3935 19.7151 66.7723 18.1699 65.6459 17.0178C64.5194 15.8656 62.9788 15.1996 61.3588 15.1646V15.1582Z" fill="#001E00"/>
<path id="Vector_4" d="M50.2075 15.3047C50.084 15.3039 49.9616 15.3273 49.8474 15.3737C49.7331 15.42 49.6294 15.4883 49.5421 15.5746C49.4548 15.661 49.3856 15.7636 49.3388 15.8766C49.2919 15.9896 49.2682 16.1106 49.2691 16.2327V30.1537C49.2691 30.3998 49.368 30.6359 49.5439 30.81C49.7199 30.984 49.9586 31.0818 50.2075 31.0818C50.4564 31.0818 50.695 30.984 50.871 30.81C51.0469 30.6359 51.1458 30.3998 51.1458 30.1537V16.2327C51.1458 15.9866 51.0469 15.7506 50.871 15.5765C50.695 15.4025 50.4564 15.3047 50.2075 15.3047Z" fill="#001E00"/>
<path id="Vector_5" d="M45.0982 17.148C45.347 17.148 45.5857 17.0503 45.7617 16.8762C45.9376 16.7022 46.0365 16.4661 46.0365 16.22C46.0365 15.9739 45.9376 15.7378 45.7617 15.5638C45.5857 15.3898 45.347 15.292 45.0982 15.292H41.4926V11.8149C41.5033 11.687 41.4872 11.5583 41.445 11.4369C41.4029 11.3155 41.3357 11.2041 41.2479 11.1096C41.16 11.0152 41.0532 10.9398 40.9344 10.8883C40.8156 10.8367 40.6872 10.8101 40.5575 10.8101C40.4277 10.8101 40.2994 10.8367 40.1805 10.8883C40.0617 10.9398 39.955 11.0152 39.8671 11.1096C39.7792 11.2041 39.7121 11.3155 39.6699 11.4369C39.6279 11.5583 39.6116 11.687 39.6224 11.8149V24.3437C39.6224 27.2995 39.9694 28.9014 40.8242 29.8676C41.8075 30.98 43.26 31.0753 44.9247 31.0753H45.0917C45.3406 31.0753 45.5793 30.9775 45.7552 30.8035C45.9312 30.6295 46.0301 30.3934 46.0301 30.1473C46.0301 29.9012 45.9312 29.6651 45.7552 29.491C45.5793 29.317 45.3406 29.2193 45.0917 29.2193H44.9247C43.5043 29.2193 42.6559 29.1302 42.2253 28.6471C41.7947 28.1641 41.4862 26.7084 41.4862 24.331V17.148H45.0982Z" fill="#001E00"/>
<path id="Vector_6" d="M13.8185 18.0123C13.421 18.0101 13.0272 18.0872 12.6606 18.2391C12.294 18.3909 11.9621 18.6142 11.6848 18.8958L11.6333 18.9403L5.12915 26.3139C6.38968 28.3241 8.31918 29.8369 10.5857 30.5919V28.4752C10.5857 27.6272 10.9263 26.8139 11.5326 26.2143C12.1388 25.6147 12.9611 25.2778 13.8185 25.2778C14.6759 25.2778 15.4982 25.6147 16.1045 26.2143C16.7107 26.8139 17.0513 27.6272 17.0513 28.4752V30.5919C19.2836 29.8466 21.1909 28.3684 22.4564 26.4029L15.9394 18.8767C15.3733 18.3262 14.6124 18.0161 13.8185 18.0123Z" fill="#001E00"/>
<path id="Vector_7" d="M13.8181 7.3335C11.0852 7.3335 8.41356 8.13505 6.14121 9.63674C3.86883 11.1384 2.09771 13.2729 1.05185 15.7701C0.00599042 18.2674 -0.267659 21.0153 0.265517 23.6664C0.798689 26.3175 2.11474 28.7526 4.04724 30.6639C5.97974 32.5753 8.44193 33.8769 11.1224 34.4042C13.8028 34.9316 16.5812 34.6609 19.1061 33.6265C21.631 32.5921 23.7891 30.8404 25.3075 28.593C26.8258 26.3455 27.6363 23.7032 27.6363 21.0002C27.6363 17.3756 26.1804 13.8994 23.5891 11.3364C20.9976 8.77335 17.4829 7.3335 13.8181 7.3335ZM4.17757 14.9614C5.20703 13.3491 6.63244 12.0207 8.32096 11.1002C10.0095 10.1796 11.9062 9.69687 13.8342 9.69687C15.7623 9.69687 17.6589 10.1796 19.3474 11.1002C21.0359 12.0207 22.4614 13.3491 23.4908 14.9614C23.576 15.0946 23.6043 15.2558 23.5693 15.4096C23.5344 15.5634 23.4391 15.6971 23.3044 15.7814C23.1697 15.8657 23.0068 15.8936 22.8513 15.859C22.6958 15.8245 22.5605 15.7302 22.4753 15.597C21.5543 14.1541 20.2788 12.9653 18.7679 12.1414C17.2568 11.3175 15.5596 10.8854 13.8342 10.8854C12.1088 10.8854 10.4115 11.3175 8.90056 12.1414C7.38959 12.9653 6.11411 14.1541 5.19306 15.597C5.13902 15.6821 5.06417 15.7524 4.97542 15.8012C4.88668 15.8502 4.7869 15.8761 4.68531 15.8767C4.57068 15.8795 4.45813 15.8461 4.36397 15.7814C4.29524 15.7416 4.23537 15.6885 4.18791 15.6253C4.14046 15.562 4.10639 15.49 4.08778 15.4134C4.06918 15.3368 4.06641 15.2573 4.07963 15.1796C4.09284 15.102 4.12179 15.0278 4.16473 14.9614H4.17757ZM20.0524 17.3388C19.951 17.4094 19.8291 17.4451 19.7053 17.4405C19.6097 17.4413 19.5153 17.4192 19.4302 17.376C19.3451 17.3328 19.2719 17.2698 19.2169 17.1926C18.6038 16.3436 17.7947 15.6516 16.8568 15.1743C15.919 14.6968 14.8794 14.4478 13.8245 14.4478C12.7697 14.4478 11.7302 14.6968 10.7923 15.1743C9.85444 15.6516 9.04535 16.3436 8.43229 17.1926C8.38678 17.2571 8.32881 17.3119 8.26161 17.354C8.19441 17.396 8.11943 17.4243 8.041 17.4374C7.96258 17.4505 7.88237 17.4479 7.80498 17.4298C7.72759 17.4118 7.6546 17.3787 7.59036 17.3324C7.46106 17.2395 7.37424 17.0997 7.34897 16.9436C7.3237 16.7875 7.36191 16.6279 7.45534 16.4997C8.1805 15.4984 9.13658 14.6825 10.2442 14.1197C11.3519 13.5568 12.5793 13.2632 13.8245 13.2632C15.0699 13.2632 16.2972 13.5568 17.4049 14.1197C18.5126 14.6825 19.4686 15.4984 20.1937 16.4997C20.2421 16.565 20.2766 16.6393 20.295 16.7181C20.3135 16.7969 20.3156 16.8786 20.3011 16.9582C20.2868 17.0379 20.2561 17.1138 20.2112 17.1814C20.1661 17.249 20.1077 17.3069 20.0395 17.3515L20.0524 17.3388ZM13.831 32.2767C10.8047 32.2767 7.90206 31.0895 5.75976 28.9755C3.61747 26.8614 2.41054 23.9932 2.40373 21.0002C2.40464 20.188 2.49298 19.3783 2.66724 18.5846V18.5084C2.70559 18.3559 2.80312 18.2245 2.93871 18.1426C3.0743 18.0607 3.23704 18.035 3.39169 18.0709C3.54634 18.1069 3.68046 18.2016 3.765 18.3347C3.84954 18.4677 3.8777 18.6283 3.84338 18.7817V18.8453C3.68322 19.5569 3.60347 20.2839 3.60558 21.0129C3.60583 22.454 3.91925 23.8783 4.52464 25.1891L10.7524 18.1397C10.7524 18.1397 10.8038 18.0952 10.8295 18.0634C11.6214 17.2805 12.6952 16.8406 13.8149 16.8406C14.9346 16.8406 16.0084 17.2805 16.8003 18.0634V18.1015L23.0345 25.3163C24.0109 23.2783 24.271 20.9762 23.7736 18.7754C23.7563 18.6986 23.7544 18.6192 23.7682 18.5417C23.7819 18.4641 23.811 18.3901 23.8537 18.3237C23.8963 18.2573 23.9518 18.1998 24.0169 18.1546C24.082 18.1094 24.1555 18.0773 24.2332 18.0603C24.3108 18.0431 24.3911 18.0413 24.4695 18.0549C24.5478 18.0685 24.6227 18.0972 24.6898 18.1394C24.7569 18.1815 24.815 18.2364 24.8608 18.3009C24.9064 18.3652 24.9389 18.4379 24.9562 18.5147C25.1411 19.3328 25.2359 20.1683 25.239 21.0065C25.2339 23.9996 24.0285 26.8684 21.8874 28.9837C19.7464 31.0989 16.8443 32.2878 13.8181 32.2894L13.831 32.2767Z" fill="#001E00"/>
<path id="Vector_8" d="M13.8175 26.3525C13.2652 26.3691 12.7419 26.6009 12.3615 26.9974C11.9811 27.3938 11.7745 27.9228 11.7866 28.4692V30.8975C13.1266 31.1687 14.5084 31.1687 15.8485 30.8975V28.4692C15.8606 27.9228 15.6539 27.3938 15.2736 26.9974C14.8932 26.6009 14.3698 26.3691 13.8175 26.3525Z" fill="#001E00"/>
</g>
</g>
</g>
</g>
<defs>
<clipPath id="clip0_2_97">
<rect width="84" height="41" fill="white" transform="translate(0 0.5)"/>
</clipPath>
</defs>
</svg>
