<svg width="188" height="198" viewBox="0 0 188 198" fill="none" xmlns="http://www.w3.org/2000/svg">
<g id="Clip path group">
<mask id="mask0_2_164" style="mask-type:luminance" maskUnits="userSpaceOnUse" x="0" y="0" width="188" height="198">
<g id="__lottie_element_185">
<path id="Vector" d="M0.756592 0.898438H187.081V197.991H0.756592V0.898438Z" fill="white"/>
</g>
</mask>
<g mask="url(#mask0_2_164)">
<g id="Group">
<g id="Group_2">
<g id="Group_3">
<path id="Vector_2" d="M178.252 1.16699H9.49261C4.81672 1.16699 1.02563 4.96466 1.02563 9.64808V189.079C1.02563 193.762 4.81672 197.56 9.49261 197.56H178.252C182.927 197.56 186.719 193.762 186.719 189.079V9.64808C186.719 4.96466 182.927 1.16699 178.252 1.16699Z" fill="white"/>
</g>
</g>
<g id="Group_4">
<g id="Group_5">
<path id="Vector_3" d="M63.2973 81.6221H16.3246C15.1186 81.6221 14.1411 82.6014 14.1411 83.8093V93.6593C14.1411 94.8671 15.1186 95.8465 16.3246 95.8465H63.2973C64.5033 95.8465 65.4808 94.8671 65.4808 93.6593V83.8093C65.4808 82.6014 64.5033 81.6221 63.2973 81.6221Z" fill="#007D1B"/>
</g>
</g>
<g id="Group_6">
<g id="Group_7">
<path id="Vector_4" d="M57.6749 87.7589C57.6749 88.2186 58.1674 88.2523 58.8172 88.3984V88.3872C59.6346 88.5782 60.5306 88.7682 60.5306 89.8338C60.5306 90.6867 59.8022 91.2251 58.716 91.2251C57.2713 91.2251 56.6552 90.5519 56.6103 89.61H57.5063C57.5513 90.0922 57.7638 90.507 58.7048 90.507C59.3434 90.507 59.6121 90.1933 59.6121 89.9124C59.6121 89.3516 59.0859 89.3066 58.4248 89.1493C57.7189 88.9808 56.7563 88.8469 56.7563 87.8263C56.7563 87.0857 57.4061 86.5024 58.526 86.5024C59.7357 86.5024 60.3171 87.1634 60.3733 87.9377H59.4773C59.4211 87.5904 59.2432 87.2318 58.526 87.2318C57.9773 87.2318 57.6749 87.4452 57.6749 87.7589ZM53.3959 87.7589C53.3959 88.2186 53.8884 88.2523 54.5382 88.3984V88.3872C55.3556 88.5782 56.2517 88.7682 56.2517 89.8338C56.2517 90.6867 55.5242 91.2251 54.438 91.2251C52.9933 91.2251 52.3772 90.5519 52.3323 89.61H53.2283C53.2733 90.0922 53.4858 90.507 54.4268 90.507C55.0654 90.507 55.3341 90.1933 55.3341 89.9124C55.3341 89.3516 54.8079 89.3066 54.1468 89.1493C53.4409 88.9808 52.4774 88.8469 52.4774 87.8263C52.4774 87.0857 53.1272 86.5024 54.247 86.5024C55.4567 86.5024 56.0391 87.1634 56.0953 87.9377H55.1993C55.1431 87.5904 54.9642 87.2318 54.247 87.2318C53.6984 87.2318 53.3959 87.4452 53.3959 87.7589ZM51.0552 88.4209C51.0552 87.7252 50.5617 87.2318 49.823 87.2318C49.0842 87.2318 48.5468 87.7252 48.5468 88.4209H51.0552ZM48.558 89.1044C48.558 89.8562 49.028 90.4733 49.8454 90.4733L49.8567 90.4845C50.6179 90.4845 50.9203 90.0135 50.999 89.7439H51.9175C51.6937 90.5856 51.0215 91.2363 49.8792 91.2363C48.4906 91.2363 47.6395 90.3281 47.6395 88.8694C47.6395 87.4106 48.4906 86.5024 49.8342 86.5024C51.2789 86.5024 51.9849 87.5117 51.9849 89.1044H48.558ZM45.8362 87.4555C46.0712 86.8947 46.441 86.5136 47.0234 86.5136C47.1798 86.5136 47.2921 86.5136 47.427 86.5361V87.3993H47.4045C46.5197 87.2533 45.8137 87.8488 45.8137 88.8019V91.0903H44.8952V86.6147H45.8137V87.4555H45.8362ZM40.7061 88.6783C40.7061 89.4976 41.1097 90.1146 41.9158 90.1146C42.6546 90.1146 43.1031 89.6203 43.1031 88.6783C43.1031 87.7364 42.6546 87.243 41.9158 87.243C41.1209 87.243 40.7061 87.8591 40.7061 88.6783ZM43.1143 87.1419V86.6147H43.1031H44.0216V90.7766C44.0216 92.0556 43.2492 92.6268 41.972 92.6268C40.6949 92.6268 39.9899 91.9545 39.8887 91.2026H40.8185C40.9084 91.5949 41.2211 91.8983 41.9496 91.8983C42.722 91.8983 43.1143 91.5509 43.1143 90.7429V90.2045H43.0919C42.8568 90.5294 42.443 90.8656 41.737 90.8656C40.6172 90.8656 39.7773 90.0922 39.7773 88.6783C39.7773 87.2645 40.6172 86.4911 41.737 86.4911C42.443 86.4911 42.8568 86.8282 43.0919 87.1419H43.1143ZM38.4777 88.8469C38.4777 89.7663 38.0189 90.462 37.1454 90.462C36.2718 90.462 35.812 89.7776 35.812 88.8469C35.812 87.9162 36.2718 87.2318 37.1454 87.2318C38.0189 87.2318 38.4777 87.9274 38.4777 88.8469ZM34.8935 88.8469C34.8935 90.2382 35.7456 91.2139 37.1454 91.2139C38.5451 91.2139 39.3962 90.2382 39.3962 88.8469C39.3962 87.4555 38.5451 86.4799 37.1454 86.4799C35.7456 86.4799 34.8935 87.4555 34.8935 88.8469ZM33.1014 87.4443C33.3365 86.8834 33.7063 86.5024 34.2887 86.5024C34.445 86.5024 34.5574 86.5024 34.6922 86.5248V87.3881H34.6698C33.7849 87.242 33.079 87.8375 33.079 88.7907V91.079H32.1614V86.6035H33.079V87.4443H33.1014ZM28.1287 88.8469C28.1287 89.845 28.5997 90.462 29.3384 90.462C30.1446 90.462 30.5706 89.7223 30.5706 88.8469C30.5706 87.9714 30.1446 87.2318 29.3384 87.2318C28.5884 87.2318 28.1287 87.8488 28.1287 88.8469ZM28.1512 87.1419C28.3862 86.8282 28.8234 86.4911 29.5182 86.4911V86.4799C30.6492 86.4799 31.5003 87.3769 31.5003 88.8469C31.5003 90.3169 30.6492 91.2139 29.5182 91.2139C28.8234 91.2139 28.3862 90.888 28.1512 90.5519H28.1287V92.6043H27.1989V86.6147H28.1287V87.1419H28.1512ZM21.7449 87.1868C21.98 86.8394 22.4397 86.4911 23.2121 86.4911C24.0408 86.4911 24.7018 86.9733 24.7018 87.9939V91.079H23.7721V88.2523C23.7721 87.6465 23.5146 87.2645 22.8872 87.2645C22.1813 87.2645 21.7225 87.7027 21.7225 88.3647V91.0903H20.804V86.6147H21.7225V87.1868H21.7449ZM18.7881 91.0903V84.8311H19.8302V91.0903H18.7881Z" fill="white"/>
</g>
</g>
<g id="Group_8">
<g id="Group_9">
<path id="Vector_5" d="M43.7753 135.782L41.7145 129.074H43.1704L44.5374 134.167H44.5599L45.9259 129.074H47.2808L48.659 134.167H48.6815L50.0363 129.074H51.4923L49.4427 135.782H48.0541L46.6094 130.667H46.587L45.1535 135.782H43.7753ZM40.046 131.766C40.046 130.734 39.3063 129.983 38.1977 129.983C37.0779 129.983 36.283 130.734 36.283 131.766H40.046ZM36.283 132.787C36.283 133.92 36.9992 134.851 38.2202 134.851L38.2314 134.84C39.3737 134.84 39.8213 134.133 39.9448 133.73H41.3231C40.9757 134.997 39.9786 135.973 38.2651 135.973C36.1818 135.973 34.9047 134.604 34.9047 132.428C34.9047 130.252 36.1818 128.883 38.1977 128.883C40.3596 128.883 41.4233 130.397 41.4233 132.787H36.283ZM32.3514 135.782V129.074H33.7287V135.782H32.3514ZM33.8186 127.201C33.8186 127.683 33.4385 127.941 33.0349 127.941C32.6539 127.941 32.2616 127.672 32.2616 127.201C32.2616 126.73 32.6539 126.483 33.0349 126.483C33.4385 126.483 33.8186 126.719 33.8186 127.201ZM27.536 135.782L25.1616 129.074H26.6175L28.3085 134.324H28.3197L30.0107 129.074H31.4666L29.0922 135.782H27.536ZM23.5146 131.766C23.5146 130.734 22.7759 129.983 21.6673 129.983C20.5475 129.983 19.7516 130.734 19.7516 131.766H23.5146ZM19.7516 132.787C19.7516 133.92 20.4688 134.851 21.6898 134.851L21.7001 134.84C22.8424 134.84 23.2908 134.133 23.4144 133.73H24.7917C24.4444 134.997 23.4472 135.973 21.7338 135.973C19.6505 135.973 18.3743 134.604 18.3743 132.428C18.3743 130.252 19.6514 128.883 21.6673 128.883C23.8292 128.883 24.8929 130.397 24.8929 132.787H19.7516ZM15.5411 130.331C15.8885 129.489 16.4474 128.917 17.321 128.917C17.556 128.917 17.7245 128.939 17.9258 128.962V130.263H17.9034C16.5822 130.039 15.5186 130.924 15.5186 132.361V135.782H14.1404V129.074H15.5186V130.331H15.5411ZM169.113 112.842C169.461 112 170.021 111.429 170.894 111.429C171.129 111.429 171.298 111.451 171.499 111.474V112.774H171.476C170.155 112.549 169.091 113.436 169.091 114.872V118.294H167.713V111.585H169.091V112.842H169.113ZM165.249 114.951C165.249 116.331 164.567 117.363 163.256 117.363C161.945 117.363 161.262 116.342 161.262 114.951C161.262 113.56 161.945 112.539 163.256 112.539C164.567 112.539 165.249 113.571 165.249 114.951ZM159.884 114.951C159.884 117.037 161.161 118.496 163.256 118.496C165.35 118.496 166.626 117.037 166.626 114.951C166.626 112.865 165.35 111.406 163.256 111.406C161.161 111.406 159.884 112.865 159.884 114.951ZM159.392 108.904V110.037V110.026C158.496 109.992 158.159 110.082 158.159 110.845V111.585H159.392V112.718H158.159V118.294H156.771V112.718H155.819V111.585H156.771V110.733C156.771 109.308 157.376 108.814 158.473 108.814C158.82 108.814 159.112 108.848 159.392 108.904ZM146.769 118.294V108.904H146.758H148.135V114.278L150.857 111.585H152.548L150.006 114.076L152.828 118.294H151.182L149.076 114.985L148.147 115.859V118.294H146.769ZM143.376 112.842C143.724 112 144.283 111.429 145.157 111.429C145.392 111.429 145.56 111.451 145.761 111.474V112.774H145.739C144.418 112.549 143.354 113.436 143.354 114.872V118.294H141.975V111.585H143.354V112.842H143.376ZM139.512 114.951C139.512 116.331 138.83 117.363 137.519 117.363C136.208 117.363 135.524 116.342 135.524 114.951C135.524 113.56 136.208 112.539 137.519 112.539C138.83 112.539 139.512 113.571 139.512 114.951ZM134.147 114.951C134.147 117.037 135.424 118.496 137.519 118.496C139.613 118.496 140.889 117.037 140.889 114.951C140.889 112.865 139.613 111.406 137.519 111.406C135.424 111.406 134.147 112.865 134.147 114.951ZM126.139 118.294L124.078 111.585H125.534L126.901 116.679H126.924L128.29 111.585H129.644L131.023 116.679H131.045L132.4 111.585H133.856L131.806 118.294H130.418L128.973 113.179H128.951L127.517 118.294H126.139ZM115.577 114.951C115.577 116.264 116.216 117.363 117.426 117.363C118.557 117.363 119.251 116.443 119.251 114.951C119.251 113.459 118.557 112.539 117.426 112.539C116.216 112.539 115.577 113.638 115.577 114.951ZM119.263 112.393V108.904V108.893H120.64V118.282H119.263V117.508H119.24C118.882 117.968 118.221 118.485 117.191 118.485C115.477 118.485 114.2 117.149 114.2 114.94C114.2 112.73 115.477 111.395 117.191 111.395C118.232 111.395 118.882 111.877 119.24 112.393H119.263ZM112.106 114.278C112.106 113.246 111.367 112.494 110.258 112.494C109.138 112.494 108.343 113.246 108.343 114.278H112.106ZM108.343 115.298C108.343 116.431 109.059 117.363 110.28 117.363L110.291 117.352C111.433 117.352 111.882 116.644 112.005 116.24H113.383C113.035 117.508 112.038 118.485 110.325 118.485C108.241 118.485 106.965 117.116 106.965 114.94C106.965 112.764 108.242 111.395 110.258 111.395C112.42 111.395 113.484 112.909 113.484 115.298H108.343ZM106.248 111.585V112.718V112.729H104.993V116.364C104.993 117.116 105.352 117.217 106.248 117.161V118.294C105.979 118.35 105.677 118.395 105.307 118.395C104.21 118.395 103.605 117.89 103.605 116.476V112.718H102.631V111.585H103.605V109.476H104.993V111.585H106.248ZM102.07 111.585V112.718V112.729H100.817V116.364C100.817 117.116 101.174 117.217 102.07 117.161V118.294C101.802 118.35 101.5 118.395 101.13 118.395C100.033 118.395 99.4271 117.89 99.4271 116.476V112.718H98.4534V111.585H99.4271V109.476H100.817V111.585H102.07ZM95.9666 118.294V111.585H97.3448V118.294H95.9666ZM97.4338 109.711C97.4338 110.194 97.0536 110.452 96.6501 110.452C96.269 110.452 95.8776 110.182 95.8776 109.711C95.8776 109.24 96.269 108.994 96.6501 108.994C97.0536 108.994 97.4338 109.229 97.4338 109.711ZM90.2439 112.55C90.7364 111.911 91.3974 111.395 92.4274 111.395L92.4498 111.406C93.8046 111.406 94.4994 112.213 94.4994 113.661V118.294H93.1108V114.053C93.1108 113.145 92.9208 112.573 91.9798 112.573C91.0388 112.573 90.4677 113.212 90.4677 114.21V118.294H89.0791V114.053C89.0791 113.145 88.8554 112.573 87.9369 112.573C87.0183 112.573 86.4247 113.212 86.4247 114.21V118.294H85.0474V111.585H86.4247V112.449H86.4472C86.8058 111.922 87.4322 111.395 88.4406 111.395C89.3816 111.395 89.9415 111.832 90.2214 112.55H90.2439ZM78.8875 114.94C78.8875 116.42 79.5813 117.352 80.7123 117.352C81.9221 117.352 82.5606 116.252 82.5606 114.94C82.5606 113.627 81.9221 112.528 80.7123 112.528C79.5813 112.528 78.8875 113.459 78.8875 114.94ZM78.8978 112.393C79.2564 111.877 79.9174 111.395 80.9474 111.395V111.406C82.6608 111.406 83.9379 112.741 83.9379 114.951C83.9379 117.161 82.6608 118.496 80.9474 118.496C79.9062 118.496 79.2564 117.979 78.8978 117.519H78.8763V118.294H77.498V108.904H78.8763V112.393H78.8978ZM74.6872 115.657V111.574V111.563H76.0645V118.271H74.6872V117.407H74.6648C74.3062 117.934 73.6114 118.462 72.4579 118.462C71.2145 118.462 70.2295 117.743 70.2295 116.207V111.574H71.6181V115.814C71.6181 116.723 71.9991 117.296 72.9401 117.296C74.0037 117.296 74.6872 116.655 74.6872 115.657ZM64.9432 113.268C64.9432 113.941 65.6819 113.997 66.6566 114.222L66.6791 114.255C67.9112 114.547 69.2436 114.816 69.2436 116.42C69.2436 117.71 68.1462 118.507 66.5227 118.507C64.3608 118.507 63.431 117.487 63.3636 116.073H64.6969C64.7643 116.791 65.078 117.407 66.489 117.407C67.4524 117.407 67.8551 116.925 67.8551 116.51C67.8551 115.668 67.0601 115.602 66.0742 115.366C65.0106 115.107 63.5659 114.905 63.5659 113.38C63.5659 112.269 64.5293 111.395 66.209 111.395C68.0348 111.395 68.8962 112.382 68.9861 113.548H67.6538C67.5526 113.021 67.2951 112.483 66.2203 112.483C65.3916 112.483 64.9432 112.797 64.9432 113.268ZM55.7927 113.268C55.7927 113.941 56.5314 113.997 57.5061 114.222L57.5286 114.255C58.7608 114.547 60.0941 114.816 60.0941 116.42C60.0941 117.71 58.9958 118.507 57.3722 118.507C55.2103 118.507 54.2815 117.487 54.2141 116.073H55.5464C55.6138 116.791 55.9275 117.407 57.3385 117.407C58.302 117.407 58.7046 116.925 58.7046 116.51C58.7046 115.668 57.9097 115.602 56.9237 115.366C55.8601 115.107 54.4154 114.905 54.4154 113.38C54.4154 112.269 55.3788 111.395 57.0586 111.395C58.8844 111.395 59.7457 112.382 59.8356 113.548H58.5033C58.4022 113.021 58.1447 112.483 57.0698 112.483C56.2412 112.483 55.7927 112.797 55.7927 113.268ZM52.1533 114.255C52.1533 113.224 51.4136 112.472 50.305 112.472C49.1852 112.472 48.3893 113.224 48.3893 114.255H52.1533ZM48.3893 115.276C48.3893 116.409 49.1066 117.34 50.3275 117.34L50.3387 117.329C51.481 117.329 51.9286 116.621 52.0522 116.218H53.4295C53.0821 117.486 52.0859 118.462 50.3724 118.462C48.2892 118.462 47.0121 117.093 47.0121 114.917C47.0121 112.741 48.2892 111.372 50.305 111.372C52.4669 111.372 53.5306 112.886 53.5306 115.276H48.3893ZM46.3295 114.019H44.9513V114.031C44.8951 113.346 44.4588 112.517 43.2828 112.517C41.9279 112.517 41.3559 113.672 41.3559 114.929C41.3559 116.185 41.9167 117.34 43.2828 117.34C44.47 117.34 44.8951 116.532 44.9513 115.781H46.3295C46.2171 117.328 45.0299 118.473 43.2828 118.473C41.2781 118.473 39.9786 117.026 39.9786 114.929C39.9786 112.831 41.2781 111.384 43.2715 111.384C45.0187 111.384 46.1619 112.494 46.3295 114.019ZM34.5134 112.438C34.872 111.911 35.5658 111.384 36.7193 111.384V111.395C37.9627 111.395 38.9486 112.113 38.9486 113.65V118.282H37.5591V114.042C37.5591 113.134 37.179 112.562 36.238 112.562C35.1744 112.562 34.4909 113.201 34.4909 114.199V118.282H33.1136V111.574H34.4909V112.438H34.5134ZM27.1213 116.431C27.1213 117.048 27.4799 117.384 28.2298 117.384C29.3721 117.384 30.1567 116.824 30.1567 115.736V114.726C29.933 114.884 29.3946 115.04 28.756 115.175C27.6138 115.422 27.1213 115.747 27.1213 116.431ZM28.4873 114.3C29.5285 114.098 30.1567 113.963 30.1567 113.324H30.1455C30.1455 112.842 29.8543 112.472 28.9358 112.472C27.8385 112.472 27.4349 112.819 27.3675 113.683H26.0351C26.1026 112.393 26.9312 111.384 28.947 111.384C30.4367 111.384 31.534 111.945 31.534 113.728V116.914C31.534 117.384 31.6352 117.643 32.1726 117.587V118.249C31.8589 118.372 31.6352 118.395 31.3777 118.395C30.6389 118.395 30.3028 118.136 30.168 117.474H30.1455C29.7195 118.069 28.9573 118.473 27.9274 118.473C26.5614 118.473 25.7215 117.688 25.7215 116.555C25.7215 115.085 26.8076 114.625 28.4873 114.3ZM22.9323 112.819C23.2796 111.977 23.8395 111.406 24.7131 111.406C24.9481 111.406 25.1166 111.429 25.3179 111.451V112.752H25.2955C23.9744 112.527 22.9098 113.414 22.9098 114.85V118.271H21.5325V111.563H22.9098V112.819H22.9323ZM15.8426 110.217V112.943V112.954H19.8977V114.289H15.8426V118.282H14.2864V108.893H20.8377V110.217H15.8426Z" fill="black"/>
</g>
</g>
<g id="Group_10">
<g id="Group_11">
<path id="Vector_6" d="M152.374 164.47H35.3835C30.2621 164.47 26.1013 168.627 26.1013 173.766C26.1013 178.896 30.2525 183.063 35.3835 183.063H152.374C157.495 183.063 161.656 178.906 161.656 173.766C161.656 168.636 157.505 164.47 152.374 164.47Z" fill="#108A00"/>
</g>
</g>
<g id="Group_12">
<g id="Group_13">
<path id="Vector_7" d="M111.4 176.551V171.229L111.39 171.249H112.171V174.29L113.712 172.765H114.675L113.237 174.177L114.836 176.56H113.903L112.703 174.682L112.18 175.178V176.551H111.4ZM109.4 173.461C109.6 172.984 109.915 172.66 110.41 172.66C110.543 172.66 110.637 172.66 110.752 172.68V173.413H110.733C109.981 173.289 109.381 173.795 109.381 174.606V176.551H108.601V172.746H109.381V173.461H109.4ZM107.144 174.653C107.144 175.435 106.753 176.026 106.011 176.026C105.268 176.026 104.878 175.444 104.878 174.653C104.878 173.862 105.268 173.28 106.011 173.28C106.753 173.28 107.144 173.872 107.144 174.653ZM104.098 174.653C104.098 175.836 104.821 176.665 106.011 176.665C107.201 176.665 107.925 175.836 107.925 174.653C107.925 173.471 107.201 172.641 106.011 172.641C104.821 172.641 104.098 173.471 104.098 174.653ZM99.4808 176.56L98.3189 172.755H99.1474L99.9185 175.645H99.9376L100.709 172.755H101.47L102.25 175.645H102.27L103.031 172.755H103.86L102.698 176.56H101.908L101.089 173.662H101.07L100.261 176.56H99.4808ZM92.1979 176.56L91.0359 172.755H91.8644L92.6356 175.645H92.6547L93.4259 172.755H94.1875L94.9683 175.645H94.9874L95.7482 172.755H96.5767L95.4156 176.56H94.6253L93.8063 173.662H93.7872L92.9786 176.56H92.1979ZM90.0172 174.281C90.0172 173.69 89.5986 173.27 88.9707 173.27C88.3427 173.27 87.8851 173.69 87.8851 174.281H90.0172ZM87.8947 174.863C87.8947 175.502 88.295 176.026 88.9898 176.026L88.9993 176.036C89.6463 176.036 89.9034 175.635 89.9703 175.406H90.751C90.5608 176.122 89.9886 176.675 89.0176 176.675C87.8374 176.675 87.1139 175.903 87.1139 174.663C87.1139 173.423 87.8381 172.651 88.9802 172.651C90.2082 172.651 90.8075 173.509 90.8075 174.863H87.8947ZM85.5906 176.56V172.755H86.3714V176.56H85.5906ZM86.4287 171.697C86.4287 171.963 86.2098 172.117 85.9814 172.117C85.7625 172.117 85.5429 171.963 85.5429 171.697C85.5429 171.43 85.7625 171.287 85.9814 171.287C86.2098 171.287 86.4287 171.43 86.4287 171.697ZM82.7916 176.56L81.4498 172.755H81.4402H82.2687L83.2301 175.73L84.1915 172.755H85.02L83.6774 176.56H82.7916ZM80.4406 174.281C80.4406 173.69 80.0212 173.27 79.3933 173.27C78.7653 173.27 78.3077 173.69 78.3077 174.281H80.4406ZM78.3172 174.863C78.3172 175.502 78.7176 176.026 79.4124 176.026L79.4219 176.036C80.0689 176.036 80.326 175.635 80.3929 175.406H81.1736C80.9834 176.122 80.412 176.675 79.441 176.675C78.2607 176.675 77.5373 175.903 77.5373 174.663C77.5373 173.423 78.2607 172.651 79.4028 172.651C80.6308 172.651 81.2309 173.509 81.2309 174.863H78.3172ZM74.9953 171.983H73.796V173.737H74.9953C75.5381 173.737 76.0992 173.623 76.0992 172.86C76.0992 172.098 75.5381 171.983 74.9953 171.983ZM73.796 176.551H72.9102H72.9197V171.229H75.1855C76.2806 171.229 76.985 171.792 76.985 172.755C76.985 173.499 76.6045 173.928 75.9949 174.081V174.1C77.2229 174.329 76.7749 176.417 77.0606 176.503V176.551H76.1278C75.8803 176.331 76.3753 174.5 75.0996 174.5H73.796V176.551Z" fill="white"/>
</g>
</g>
<g id="Group_14">
<g id="Group_15">
<path id="Vector_8" d="M1.30571 9.64824C1.30571 5.12774 4.97882 1.44806 9.49273 1.44806H178.252C182.766 1.44806 186.439 5.12774 186.439 9.64824V189.079C186.439 193.599 182.766 197.279 178.252 197.279H9.49273C4.97882 197.279 1.30571 193.599 1.30571 189.079V9.64824ZM9.49273 197.829H178.263H178.252C183.068 197.829 186.988 193.903 186.988 189.079V9.64824C186.988 4.82438 183.068 0.898438 178.252 0.898438H9.49273C4.67639 0.898438 0.756104 4.82438 0.756104 9.64824V189.079C0.756104 193.903 4.67639 197.829 9.49273 197.829Z" fill="#E4EBE4"/>
</g>
</g>
<g id="Group_16">
<g id="Group_17">
<path id="Vector_9" d="M158.821 42.1577H84.744C82.8293 42.1577 81.2834 43.7054 81.2834 45.6239C81.2834 47.5424 82.8293 49.0901 84.744 49.0901H158.821C160.736 49.0901 162.282 47.5424 162.282 45.6239C162.282 43.7054 160.736 42.1577 158.821 42.1577Z" fill="url(#paint0_linear_2_164)"/>
</g>
</g>
<g id="Group_18">
<g id="Group_19">
<path id="Vector_10" d="M170.289 30.6035H84.7445C82.8298 30.6035 81.2839 32.1512 81.2839 34.0697C81.2839 35.9882 82.8298 37.5359 84.7445 37.5359H170.289C172.204 37.5359 173.75 35.9882 173.75 34.0697C173.75 32.1512 172.204 30.6035 170.289 30.6035Z" fill="url(#paint1_linear_2_164)"/>
</g>
</g>
</g>
</g>
</g>
<defs>
<linearGradient id="paint0_linear_2_164" x1="162.293" y1="45.6239" x2="81.2834" y2="45.6239" gradientUnits="userSpaceOnUse">
<stop stop-color="#E4EBE4"/>
<stop offset="0.25" stop-color="#EDF3ED"/>
<stop offset="0.49" stop-color="#F7FAF7"/>
<stop offset="0.75" stop-color="#EDF3ED"/>
<stop offset="1" stop-color="#E4EBE4"/>
</linearGradient>
<linearGradient id="paint1_linear_2_164" x1="173.75" y1="34.0697" x2="1.87558" y2="34.0697" gradientUnits="userSpaceOnUse">
<stop stop-color="#E4EBE4"/>
<stop offset="0.25" stop-color="#EDF3ED"/>
<stop offset="0.49" stop-color="#F7FAF7"/>
<stop offset="0.75" stop-color="#EDF3ED"/>
<stop offset="1" stop-color="#E4EBE4"/>
</linearGradient>
</defs>
</svg>
