<svg width="24" height="24" viewBox="0 0 24 24" fill="none" xmlns="http://www.w3.org/2000/svg">
<g id="Frame">
<path id="Vector" d="M20.981 13.7V16.987C20.981 17.7819 20.6652 18.5442 20.1032 19.1062C19.5412 19.6682 18.7789 19.984 17.984 19.984H5.998C5.60426 19.9841 5.21435 19.9067 4.85056 19.7561C4.48677 19.6054 4.15622 19.3846 3.8778 19.1062C3.59938 18.8278 3.37856 18.4972 3.22794 18.1334C3.07732 17.7696 2.99987 17.3797 3 16.986V6.996C3.00027 6.20132 3.31614 5.43928 3.87815 4.87745C4.44017 4.31562 5.20232 4 5.997 4H10.992M16.242 6.059L18.979 8.816" stroke="#001E00" stroke-width="1.5" stroke-linecap="round" stroke-linejoin="round"/>
<path id="Vector_2" d="M11.9901 15.358L10.5011 15.648C10.3403 15.6887 10.1719 15.6887 10.0111 15.648C9.85438 15.5966 9.71096 15.5113 9.59109 15.398C9.47606 15.2836 9.3906 15.1428 9.34209 14.988C9.29743 14.8281 9.29743 14.6589 9.34209 14.499L9.62209 12.991C9.70709 12.611 9.90209 12.263 10.1821 11.991L17.5441 4.629C17.7265 4.43765 17.9478 4.28761 18.1931 4.189C18.4401 4.073 18.7091 4.009 18.9831 4C19.2471 4.002 19.5081 4.056 19.7511 4.16C19.9981 4.26 20.2221 4.41 20.4111 4.6C20.5991 4.78518 20.7487 5.00575 20.8511 5.249C21.0501 5.74582 21.0501 6.30018 20.8511 6.797C20.7488 7.04063 20.5993 7.26156 20.4111 7.447L12.9881 14.799C12.7181 15.079 12.3701 15.273 11.9891 15.359L11.9901 15.358Z" stroke="#001E00" stroke-width="1.5" stroke-linecap="round" stroke-linejoin="round"/>
</g>
</svg>
