<svg width="151" height="160" viewBox="0 0 151 160" fill="none" xmlns="http://www.w3.org/2000/svg">
<path d="M143.812 0.217773H7.07827C3.28973 0.217773 0.218079 3.29476 0.218079 7.0894V152.469C0.218079 156.264 3.28973 159.341 7.07827 159.341H143.812C147.6 159.341 150.672 156.264 150.672 152.469V7.0894C150.672 3.29476 147.6 0.217773 143.812 0.217773Z" fill="#F2F7F2"/>
<path d="M21.3185 59.8052C21.3185 61.2812 20.7425 62.6732 18.6785 62.6732C16.6145 62.6732 16.0385 61.2812 16.0385 59.8052V59.4092H17.3945V59.8052C17.3945 60.7652 17.5625 61.4492 18.6425 61.4492C19.7105 61.4492 19.9025 60.7652 19.9025 59.8052V53.9132H21.3185V59.8052ZM25.7111 62.6732C23.7911 62.6732 22.6271 61.3412 22.6271 59.4332C22.6271 57.5252 23.7911 56.1932 25.7111 56.1932C27.6311 56.1932 28.7951 57.5252 28.7951 59.4332C28.7951 61.3412 27.6311 62.6732 25.7111 62.6732ZM25.7111 61.6412C26.9111 61.6412 27.5351 60.6932 27.5351 59.4332C27.5351 58.1612 26.9111 57.2252 25.7111 57.2252C24.5111 57.2252 23.8871 58.1612 23.8871 59.4332C23.8871 60.6932 24.5111 61.6412 25.7111 61.6412ZM33.222 56.1932C34.794 56.1932 35.958 57.4172 35.958 59.4332C35.958 61.4492 34.794 62.6732 33.222 62.6732C32.274 62.6732 31.674 62.2052 31.35 61.7852H31.326V62.4932H30.066V53.9132H31.326V57.1052H31.35C31.674 56.6372 32.274 56.1932 33.222 56.1932ZM33.006 61.6412C34.11 61.6412 34.698 60.6332 34.698 59.4332C34.698 58.2332 34.11 57.2252 33.006 57.2252C31.974 57.2252 31.338 58.0652 31.338 59.4332C31.338 60.7892 31.974 61.6412 33.006 61.6412ZM40.0565 62.4932V53.9132H43.7045C45.3485 53.9132 46.5365 54.6812 46.5365 56.4812C46.5365 58.2812 45.3485 59.0612 43.7045 59.0612H41.4845V62.4932H40.0565ZM41.4845 55.1252V57.8372H43.6445C44.6045 57.8372 45.1085 57.4292 45.1085 56.4812C45.1085 55.5452 44.6045 55.1252 43.6445 55.1252H41.4845ZM50.315 62.6732C48.395 62.6732 47.231 61.3412 47.231 59.4332C47.231 57.5252 48.395 56.1932 50.315 56.1932C52.235 56.1932 53.399 57.5252 53.399 59.4332C53.399 61.3412 52.235 62.6732 50.315 62.6732ZM50.315 61.6412C51.515 61.6412 52.139 60.6932 52.139 59.4332C52.139 58.1612 51.515 57.2252 50.315 57.2252C49.115 57.2252 48.491 58.1612 48.491 59.4332C48.491 60.6932 49.115 61.6412 50.315 61.6412ZM57.3219 58.7852C58.4499 59.0492 59.6739 59.3012 59.6739 60.7652C59.6739 61.9412 58.6659 62.6732 57.1779 62.6732C55.1979 62.6732 54.3459 61.7492 54.2859 60.4532H55.5099C55.5699 61.1132 55.8579 61.6772 57.1539 61.6772C58.0299 61.6772 58.4019 61.2452 58.4019 60.8612C58.4019 60.0932 57.6699 60.0332 56.7699 59.8172C55.7979 59.5892 54.4779 59.3972 54.4779 58.0052C54.4779 56.9972 55.3659 56.1932 56.9019 56.1932C58.5699 56.1932 59.3619 57.0932 59.4459 58.1612H58.2219C58.1379 57.6812 57.8979 57.1892 56.9139 57.1892C56.1579 57.1892 55.7499 57.4772 55.7499 57.9092C55.7499 58.5332 56.4339 58.5812 57.3219 58.7852ZM63.7049 57.3932H62.5529V60.7172C62.5529 61.4132 62.8889 61.4972 63.7049 61.4492V62.4812C63.4529 62.5412 63.1769 62.5772 62.8409 62.5772C61.8329 62.5772 61.2809 62.1212 61.2809 60.8252V57.3932H60.3929V56.3612H61.2809V54.4292H62.5529V56.3612H63.7049V57.3932Z" fill="#001E00"/>
<path d="M89.6467 142.319V138.007L89.6389 138.023H90.2715V140.487L91.5205 139.251H92.3001L91.1349 140.395L92.431 142.326H91.6753L90.7029 140.805L90.2792 141.206V142.319H89.6467ZM88.0268 139.815C88.1887 139.429 88.4434 139.167 88.8445 139.167C88.9522 139.167 89.0289 139.167 89.1218 139.182V139.777H89.1063C88.4969 139.676 88.0114 140.086 88.0114 140.743V142.319H87.3788V139.236H88.0114V139.815H88.0268ZM86.1987 140.781C86.1987 141.415 85.8821 141.894 85.2805 141.894C84.6789 141.894 84.3629 141.422 84.3629 140.781C84.3629 140.14 84.6789 139.668 85.2805 139.668C85.8821 139.668 86.1987 140.148 86.1987 140.781ZM83.7303 140.781C83.7303 141.74 84.3165 142.412 85.2805 142.412C86.2445 142.412 86.8313 141.74 86.8313 140.781C86.8313 139.823 86.2445 139.151 85.2805 139.151C84.3165 139.151 83.7303 139.823 83.7303 140.781ZM79.9897 142.326L79.0482 139.243H79.7195L80.3443 141.585H80.3598L80.9846 139.243H81.6017L82.2337 141.585H82.2491L82.8662 139.243H83.5375L82.5967 142.326H81.9564L81.2929 139.978H81.2774L80.6216 142.326H79.9897ZM74.0888 142.326L73.1473 139.243H73.8186L74.4435 141.585H74.4589L75.0838 139.243H75.7009L76.3335 141.585H76.3489L76.9654 139.243H77.6367L76.6959 142.326H76.0555L75.392 139.978H75.3765L74.7214 142.326H74.0888ZM72.322 140.48C72.322 140 71.9828 139.661 71.474 139.661C70.9652 139.661 70.5945 140 70.5945 140.48H72.322ZM70.6022 140.951C70.6022 141.469 70.9265 141.894 71.4895 141.894L71.4972 141.901C72.0215 141.901 72.2297 141.577 72.2839 141.391H72.9165C72.7624 141.971 72.2987 142.419 71.5121 142.419C70.5558 142.419 69.9696 141.794 69.9696 140.789C69.9696 139.784 70.5564 139.159 71.4817 139.159C72.4767 139.159 72.9623 139.854 72.9623 140.951H70.6022ZM68.7354 142.326V139.243H69.368V142.326H68.7354ZM69.4144 138.386C69.4144 138.602 69.2371 138.726 69.052 138.726C68.8747 138.726 68.6967 138.602 68.6967 138.386C68.6967 138.17 68.8747 138.054 69.052 138.054C69.2371 138.054 69.4144 138.17 69.4144 138.386ZM66.4675 142.326L65.3803 139.243H65.3726H66.0439L66.8228 141.654L67.6018 139.243H68.2731L67.1852 142.326H66.4675ZM64.5627 140.48C64.5627 140 64.2229 139.661 63.7141 139.661C63.2053 139.661 62.8346 140 62.8346 140.48H64.5627ZM62.8423 140.951C62.8423 141.469 63.1666 141.894 63.7296 141.894L63.7373 141.901C64.2616 141.901 64.4698 141.577 64.524 141.391H65.1566C65.0025 141.971 64.5395 142.419 63.7528 142.419C62.7965 142.419 62.2104 141.794 62.2104 140.789C62.2104 139.784 62.7965 139.159 63.7218 139.159C64.7168 139.159 65.203 139.854 65.203 140.951H62.8423ZM60.1508 138.618H59.179V140.039H60.1508C60.5905 140.039 61.0451 139.946 61.0451 139.329C61.0451 138.711 60.5905 138.618 60.1508 138.618ZM59.179 142.319H58.4613H58.469V138.007H60.3049C61.1922 138.007 61.7628 138.463 61.7628 139.243C61.7628 139.846 61.4546 140.194 60.9607 140.318V140.333C61.9556 140.519 61.5926 142.21 61.8241 142.28V142.319H61.0684C60.8678 142.141 61.2689 140.658 60.2352 140.658H59.179V142.319Z" fill="white"/>
<path d="M0.444759 7.08984C0.444759 3.4272 3.42082 0.445806 7.07812 0.445806H143.812C147.469 0.445806 150.445 3.4272 150.445 7.08984V152.47C150.445 156.132 147.469 159.114 143.812 159.114H7.07812C3.42082 159.114 0.444759 156.132 0.444759 152.47V7.08984ZM7.07812 159.559H143.821H143.812C147.714 159.559 150.89 156.378 150.89 152.47V7.08984C150.89 3.18141 147.714 0.000488281 143.812 0.000488281H7.07812C3.17579 0.000488281 -0.000549316 3.18141 -0.000549316 7.08984V152.47C-0.000549316 156.378 3.17579 159.559 7.07812 159.559Z" fill="#E4EBE4"/>
<path d="M128.069 33.4297H68.0492C66.4979 33.4297 65.2454 34.6837 65.2454 36.2381C65.2454 37.7925 66.4979 39.0466 68.0492 39.0466H128.069C129.62 39.0466 130.873 37.7925 130.873 36.2381C130.873 34.6837 129.62 33.4297 128.069 33.4297Z" fill="url(#paint0_linear_374_6)"/>
<path d="M137.361 24.0679H68.0497C66.4983 24.0679 65.2458 25.3219 65.2458 26.8763C65.2458 28.4307 66.4983 29.6847 68.0497 29.6847H137.361C138.912 29.6847 140.165 28.4307 140.165 26.8763C140.165 25.3219 138.912 24.0679 137.361 24.0679Z" fill="url(#paint1_linear_374_6)"/>
<path d="M87.9257 76.4932H18.6146C17.0632 76.4932 15.8107 77.7472 15.8107 79.3016C15.8107 80.856 17.0632 82.11 18.6146 82.11H87.9257C89.4771 82.11 90.7296 80.856 90.7296 79.3016C90.7296 77.7472 89.4771 76.4932 87.9257 76.4932Z" fill="url(#paint2_linear_374_6)"/>
<path d="M87.9257 106.493H18.6146C17.0632 106.493 15.8107 107.747 15.8107 109.302C15.8107 110.856 17.0632 112.11 18.6146 112.11H87.9257C89.4771 112.11 90.7296 110.856 90.7296 109.302C90.7296 107.747 89.4771 106.493 87.9257 106.493Z" fill="url(#paint3_linear_374_6)"/>
<path d="M117.881 91.4932H20.7404C18.5661 91.4932 16.8107 92.8327 16.8107 94.4932C16.8107 96.1536 18.5661 97.4932 20.7404 97.4932H117.881C120.055 97.4932 121.811 96.1536 121.811 94.4932C121.811 92.8327 120.055 91.4932 117.881 91.4932Z" fill="url(#paint4_linear_374_6)"/>
<defs>
<linearGradient id="paint0_linear_374_6" x1="130.882" y1="36.2381" x2="65.2454" y2="36.2381" gradientUnits="userSpaceOnUse">
<stop stop-color="#E4EBE4"/>
<stop offset="0.25" stop-color="#EDF3ED"/>
<stop offset="0.49" stop-color="#F7FAF7"/>
<stop offset="0.75" stop-color="#EDF3ED"/>
<stop offset="1" stop-color="#E4EBE4"/>
</linearGradient>
<linearGradient id="paint1_linear_374_6" x1="140.165" y1="26.8763" x2="0.906757" y2="26.8763" gradientUnits="userSpaceOnUse">
<stop stop-color="#C6DBC6"/>
<stop offset="0.25" stop-color="#D4ECD4"/>
<stop offset="0.49" stop-color="#B4CBB4"/>
<stop offset="0.75" stop-color="#C8D8C8"/>
<stop offset="1" stop-color="#D2E3D2"/>
</linearGradient>
<linearGradient id="paint2_linear_374_6" x1="90.7296" y1="79.3016" x2="-48.5283" y2="79.3016" gradientUnits="userSpaceOnUse">
<stop stop-color="#C6DBC6"/>
<stop offset="0.25" stop-color="#D4ECD4"/>
<stop offset="0.49" stop-color="#B4CBB4"/>
<stop offset="0.75" stop-color="#C8D8C8"/>
<stop offset="1" stop-color="#D2E3D2"/>
</linearGradient>
<linearGradient id="paint3_linear_374_6" x1="90.7296" y1="109.302" x2="-48.5283" y2="109.302" gradientUnits="userSpaceOnUse">
<stop stop-color="#C6DBC6"/>
<stop offset="0.25" stop-color="#D4ECD4"/>
<stop offset="0.49" stop-color="#B4CBB4"/>
<stop offset="0.75" stop-color="#C8D8C8"/>
<stop offset="1" stop-color="#D2E3D2"/>
</linearGradient>
<linearGradient id="paint4_linear_374_6" x1="121.811" y1="94.4932" x2="-73.3615" y2="94.4932" gradientUnits="userSpaceOnUse">
<stop stop-color="#C6DBC6"/>
<stop offset="0.25" stop-color="#D4ECD4"/>
<stop offset="0.49" stop-color="#B4CBB4"/>
<stop offset="0.75" stop-color="#C8D8C8"/>
<stop offset="1" stop-color="#D2E3D2"/>
</linearGradient>
</defs>
</svg>
