<svg width="151" height="160" viewBox="0 0 151 160" fill="none" xmlns="http://www.w3.org/2000/svg">
<g id="Group">
<g id="Group_2">
<path id="Vector" d="M0.444698 7.08984C0.444698 3.4272 3.42076 0.445806 7.07806 0.445806H143.812C147.469 0.445806 150.445 3.4272 150.445 7.08984V152.47C150.445 156.132 147.469 159.114 143.812 159.114H7.07806C3.42076 159.114 0.444698 156.132 0.444698 152.47V7.08984ZM7.07806 159.559H143.821H143.812C147.714 159.559 150.89 156.378 150.89 152.47V7.08984C150.89 3.18141 147.714 0.000488281 143.812 0.000488281H7.07806C3.17573 0.000488281 -0.000610352 3.18141 -0.000610352 7.08984V152.47C-0.000610352 156.378 3.17573 159.559 7.07806 159.559Z" fill="#E4EBE4"/>
</g>
</g>
</svg>
