<svg width="121" height="121" viewBox="0 0 121 121" fill="none" xmlns="http://www.w3.org/2000/svg">
<g id="Frame 139">
<rect width="121" height="121" rx="60.5" fill="#495057"/>
<path id="Vector" fill-rule="evenodd" clip-rule="evenodd" d="M41.7993 31.8948C41.7993 26.8497 43.8035 22.0113 47.3709 18.4439C50.9383 14.8765 55.7767 12.8723 60.8218 12.8723C65.8668 12.8723 70.7053 14.8765 74.2727 18.4439C77.8401 22.0113 79.8442 26.8497 79.8442 31.8948C79.8442 36.9398 77.8401 41.7783 74.2727 45.3457C70.7053 48.9131 65.8668 50.9172 60.8218 50.9172C55.7767 50.9172 50.9383 48.9131 47.3709 45.3457C43.8035 41.7783 41.7993 36.9398 41.7993 31.8948ZM41.7993 60.4285C35.493 60.4285 29.4449 62.9336 24.9857 67.3929C20.5264 71.8522 18.0212 77.9002 18.0212 84.2065C18.0212 87.9903 19.5244 91.6192 22.1999 94.2947C24.8755 96.9703 28.5043 98.4734 32.2881 98.4734H89.3555C93.1393 98.4734 96.7681 96.9703 99.4436 94.2947C102.119 91.6192 103.622 87.9903 103.622 84.2065C103.622 77.9002 101.117 71.8522 96.6579 67.3929C92.1986 62.9336 86.1506 60.4285 79.8442 60.4285H41.7993Z" fill="white"/>
</g>
</svg>
