<svg width="24" height="24" viewBox="0 0 24 24" fill="none" xmlns="http://www.w3.org/2000/svg">
<g id="Frame">
<path id="Vector" d="M20.015 16.114L12.976 20.692C12.6666 20.893 12.3055 21 11.9365 21C11.5675 21 11.2064 20.893 10.897 20.692L3.85802 16.114C3.59307 15.9394 3.37586 15.7014 3.22604 15.4217C3.07623 15.142 2.99854 14.8293 3.00002 14.512V4.907C3.00002 4.40123 3.20094 3.91618 3.55857 3.55855C3.9162 3.20092 4.40125 3 4.90702 3H18.966C19.4717 3.00026 19.9566 3.20127 20.3142 3.55884C20.6718 3.91641 20.8728 4.40131 20.873 4.907V14.512C20.8745 14.8293 20.7968 15.142 20.647 15.4217C20.4972 15.7014 20.28 15.9394 20.015 16.114Z" stroke="#001E00" stroke-width="1.5" stroke-linecap="round" stroke-linejoin="round"/>
<path id="Vector_2" d="M11.9391 5.33008L13.3311 8.92608L17.1851 9.13608L14.1901 11.5771L15.1821 15.3071L11.9391 13.2071L8.69612 15.3071L9.69812 11.5771L6.69312 9.13508L10.5561 8.92508L11.9391 5.33008Z" stroke="#001E00" stroke-width="1.5" stroke-linecap="round" stroke-linejoin="round"/>
</g>
</svg>
