<svg width="287" height="276" viewBox="0 0 287 276" fill="none" xmlns="http://www.w3.org/2000/svg">
<mask id="mask0_2_203" style="mask-type:luminance" maskUnits="userSpaceOnUse" x="0" y="0" width="287" height="287">
<path d="M36.1255 0.875488L286.469 36.0593L251.286 286.404L0.942036 251.221L36.1255 0.875488Z" fill="white"/>
</mask>
<g mask="url(#mask0_2_203)">
<path d="M189.525 161.171C195.776 168.44 198.891 177.244 199.068 186.966C199.184 197.12 197.293 207.433 193.026 217.412L192.32 219.296C189.191 227.451 183.343 234.563 175.637 239.211C172.494 241.193 169.195 242.713 165.71 243.986C152.973 248.367 139.55 249.786 126.151 247.903C116.642 246.567 107.375 243.501 98.9701 239.014C98.5378 238.953 98.3217 238.923 97.8895 238.862L82.7612 236.736C80.6 236.432 78.3138 235.45 76.3045 234.066C72.9038 231.604 71.0732 227.38 71.6503 223.274C72.3185 218.519 75.7355 214.591 80.4866 213.716C80.9492 213.561 81.628 213.436 82.3067 213.311C79.0953 212.639 75.975 211.319 73.3477 209.628C69.5148 207.106 67.3127 202.388 67.9809 197.634C68.7403 192.231 72.8664 187.962 78.0497 187.148C76.5976 186.503 75.3617 185.889 73.9096 185.244C69.1818 182.816 66.6083 177.606 67.3676 172.203C67.9751 167.881 70.9295 164.108 75.1537 162.278L75.3698 162.308C77.0345 161.44 78.6385 161.005 80.4585 160.599C74.6806 157.804 71.364 151.607 72.2448 145.34C73.0649 139.505 77.684 134.865 83.5461 133.925C95.5167 131.861 107.862 131.833 119.965 133.534L130.122 134.962C158.538 140.553 189.339 160.924 189.525 161.171Z" fill="url(#paint0_radial_2_203)"/>
<path d="M189.317 160.692C195.568 167.962 198.891 177.244 199.068 186.966C199.183 197.12 197.293 207.433 193.026 217.412L192.32 219.296C189.191 227.452 183.342 234.564 175.637 239.211C172.493 241.193 169.194 242.713 165.71 243.986C152.973 248.367 139.55 249.787 126.151 247.903C116.641 246.567 107.375 243.501 98.9698 239.014C98.5376 238.954 98.3215 238.923 97.8893 238.863L82.761 236.736C80.5998 236.433 78.3136 235.45 76.3043 234.066C72.9036 231.604 71.073 227.38 71.6501 223.274C72.3183 218.519 75.7353 214.592 80.4864 213.717C80.949 213.561 81.6278 213.436 82.3065 213.311C79.0951 212.64 75.9748 211.32 73.3475 209.628C69.5146 207.106 67.3125 202.389 67.9807 197.634C68.7401 192.231 72.8662 187.962 78.0495 187.148C76.5974 186.503 75.3615 185.889 73.9094 185.244C69.1816 182.816 66.6081 177.606 67.3674 172.203C67.9749 167.881 70.9292 164.109 75.1535 162.278L75.3696 162.309C77.0343 161.441 78.6382 161.005 80.4583 160.599C74.6804 157.804 71.3638 151.608 72.2446 145.34C73.0647 139.505 77.6838 134.865 83.5458 133.926C95.5165 131.862 107.862 131.834 119.965 133.535L130.122 134.962C129.199 122.711 129.634 110.21 131.365 97.8913C132.702 88.3821 141.143 81.6345 150.743 82.3226C155.559 82.5586 159.395 86.624 159.591 91.5001C160.387 115.634 169.729 138.545 185.696 156.657L188.759 159.953C188.945 160.199 189.131 160.446 189.317 160.692Z" fill="url(#paint1_radial_2_203)"/>
<path d="M106.884 217.208C110.501 219.699 112.301 224.14 111.693 228.462C110.934 233.865 106.592 238.103 100.73 239.043C100.298 238.982 99.6188 239.107 99.1866 239.046C98.7544 238.985 98.5383 238.955 98.106 238.894L82.9777 236.768C80.8165 236.464 78.5304 235.482 76.521 234.098C73.1204 231.636 71.2898 227.412 71.8669 223.306C72.5351 218.551 75.9521 214.623 80.7032 213.748C81.1658 213.593 81.8445 213.468 82.5233 213.343C84.9917 213.029 87.6458 212.961 90.0231 213.295L100.613 214.784C102.99 215.118 105.091 215.854 106.884 217.208Z" fill="url(#paint2_radial_2_203)"/>
<path d="M107.26 192.577C110.847 195.285 112.833 199.972 112.195 204.51C111.223 211.426 104.814 216.256 98.1143 215.314L84.0666 213.34C83.6343 213.279 83.2021 213.218 82.7699 213.158C79.5585 212.486 76.4382 211.166 73.8109 209.474C69.978 206.952 67.7759 202.235 68.4441 197.48C69.2034 192.077 73.3295 187.809 78.5129 186.994C78.729 187.025 79.1916 186.869 79.6238 186.93C83.8516 186.643 87.8025 186.757 91.9087 187.334L95.1505 187.79C99.4729 188.397 103.643 190.085 107.26 192.577Z" fill="url(#paint3_radial_2_203)"/>
<path d="M107.971 165.569C112.421 168.399 114.748 173.795 114.02 178.981C112.956 186.546 105.839 191.716 98.2744 190.653L85.9557 188.922C83.3623 188.557 80.7992 187.977 78.513 186.994C77.0609 186.349 75.825 185.735 74.3729 185.09C69.6452 182.662 67.0716 177.452 67.8309 172.049C68.4384 167.727 71.3928 163.955 75.617 162.124L75.8331 162.154C77.4978 161.287 79.1018 160.851 80.9218 160.445C84.3458 159.604 88.111 159.472 91.785 159.989L95.2429 160.475C99.5653 161.082 103.736 162.77 107.383 165.046C107.569 165.292 107.785 165.323 107.971 165.569Z" fill="url(#paint4_radial_2_203)"/>
<path d="M94.0174 164.49C89.479 163.852 85.062 162.349 80.7057 160.415L79.6555 160.047C74.3401 157.096 71.3951 151.393 72.2455 145.341C72.6404 142.532 73.8693 140.06 75.6859 138.111L99.0267 141.392L105.726 142.333C111.963 143.43 116.421 149.346 115.54 155.614C114.629 162.097 108.714 166.555 102.23 165.644L94.0174 164.49Z" fill="url(#paint5_radial_2_203)"/>
<path d="M136.26 136.377C136.933 147.27 138.751 155.9 141.46 166.419C143.203 172.835 144.507 179.63 143.077 185.489L68.0608 178.252C67.2232 176.371 67.0644 174.366 67.3681 172.204C67.9756 167.882 70.9299 164.11 75.1542 162.279L75.3703 162.31C77.035 161.442 78.6389 161.006 80.459 160.601C74.6811 157.805 71.3645 151.609 72.2453 145.341C73.0654 139.506 77.6845 134.866 83.5465 133.927C95.5172 131.863 107.863 131.835 119.965 133.536L136.26 136.377Z" fill="url(#paint6_radial_2_203)"/>
<path d="M189.317 160.694C191.978 163.712 194.116 167.319 195.791 171.08C202.757 193.465 176.202 203.064 164.145 199.662C152.087 196.259 147.042 191.777 143.078 185.49C139.67 179.942 137.032 173.621 135.289 167.205C132.58 156.687 130.796 145.857 130.123 134.964C129.2 122.713 129.635 110.212 131.366 97.8936C132.703 88.3845 141.144 81.637 150.744 82.3251C155.56 82.561 159.396 86.6264 159.592 91.5024C160.388 115.636 169.73 138.547 185.697 156.659L188.76 159.954C188.946 160.201 189.131 160.447 189.317 160.694Z" fill="#BC5118"/>
<path d="M189.317 160.694C191.978 163.712 194.116 167.319 195.791 171.08C202.757 193.465 176.202 203.064 164.145 199.662C152.087 196.259 147.042 191.777 143.078 185.49C139.67 179.942 137.032 173.621 135.289 167.205C132.58 156.687 130.796 145.857 130.123 134.964C129.2 122.713 129.635 110.212 131.366 97.8936C132.703 88.3845 141.144 81.637 150.744 82.3251C155.56 82.561 159.396 86.6264 159.592 91.5024C160.388 115.636 169.73 138.547 185.697 156.659L188.76 159.954C188.946 160.201 189.131 160.447 189.317 160.694Z" fill="url(#paint7_radial_2_203)"/>
<g opacity="0.5">
<path d="M159.844 94.4031C157.873 95.8891 156.492 99.4416 156.84 103.237C157.097 107.681 159.481 111.101 162.014 111.898C158.927 111.905 156.172 107.992 155.759 103.085C155.502 98.6413 157.13 94.9031 159.719 93.7244C159.905 93.9709 159.875 94.187 159.844 94.4031Z" fill="url(#paint8_radial_2_203)"/>
</g>
<g opacity="0.5">
<path d="M159.719 93.7244C160.165 99.9579 161.074 106.036 162.446 111.959C159.143 111.935 156.388 108.022 155.759 103.085C155.502 98.6413 157.129 94.9031 159.719 93.7244Z" fill="url(#paint9_radial_2_203)"/>
</g>
<mask id="mask1_2_203" style="mask-type:luminance" maskUnits="userSpaceOnUse" x="-35" y="63" width="354" height="326">
<path d="M5.15674 63.7671L318.526 107.809L279.041 388.762L-34.3284 344.721L5.15674 63.7671Z" fill="white"/>
</mask>
<g mask="url(#mask1_2_203)">
<path d="M192.785 188.65C208.357 190.838 222.942 178.122 225.433 160.4C227.924 142.679 217.408 126.435 201.836 124.246M169.158 152.712C166.667 170.433 177.183 186.677 192.755 188.866C208.327 191.054 222.912 178.338 225.403 160.617C227.893 142.895 217.378 126.651 201.806 124.462C186.234 122.274 171.648 134.99 169.158 152.712Z" fill="#14A800"/>
<path d="M225.403 160.616C227.893 142.895 217.378 126.651 201.806 124.462L204.595 124.854C220.167 127.043 230.682 143.287 228.192 161.008C225.701 178.73 211.116 191.446 195.544 189.258L192.755 188.866C208.327 191.054 222.912 178.338 225.403 160.616Z" fill="url(#paint10_linear_2_203)"/>
<path d="M188.02 168.587C188.97 170.263 190.475 171.356 192.335 171.618C194.194 171.879 196.175 171.276 197.549 169.926L217.816 150.516C218.928 149.35 219.232 147.188 218.221 145.944C217.242 144.484 215.352 144.439 214.24 145.605L194.206 165.049C193.943 165.232 193.711 165.2 193.478 165.167C193.246 165.134 193.013 165.102 192.811 164.853L185.185 151.66C184.438 150.232 182.578 149.971 181.265 150.888C179.92 152.022 179.647 153.967 180.394 155.394L188.02 168.587Z" fill="#95DF00"/>
</g>
</g>
<defs>
<radialGradient id="paint0_radial_2_203" cx="0" cy="0" r="1" gradientUnits="userSpaceOnUse" gradientTransform="translate(136.999 141.971) rotate(8.00011) scale(116.8 116.8)">
<stop offset="0.7" stop-color="#BC5118"/>
<stop offset="0.76" stop-color="#A94716"/>
<stop offset="0.82" stop-color="#953E15"/>
<stop offset="0.88" stop-color="#863713"/>
<stop offset="0.94" stop-color="#783012"/>
<stop offset="0.97" stop-color="#722D12"/>
<stop offset="1" stop-color="#6D2B11"/>
</radialGradient>
<radialGradient id="paint1_radial_2_203" cx="0" cy="0" r="1" gradientUnits="userSpaceOnUse" gradientTransform="translate(46.5536 230.244) rotate(8.00011) scale(80.7318 80.7318)">
<stop offset="0.7" stop-color="#51200F"/>
<stop offset="0.78" stop-color="#5A2310" stop-opacity="0.741"/>
<stop offset="0.86" stop-color="#622710" stop-opacity="0.482"/>
<stop offset="0.93" stop-color="#682911" stop-opacity="0.241"/>
<stop offset="1" stop-color="#6D2B11" stop-opacity="0"/>
</radialGradient>
<radialGradient id="paint2_radial_2_203" cx="0" cy="0" r="1" gradientUnits="userSpaceOnUse" gradientTransform="translate(88.337 213.689) rotate(8.00011) scale(27.1379 27.1379)">
<stop offset="0.58" stop-color="#BC5118"/>
<stop offset="0.67" stop-color="#A94716"/>
<stop offset="0.75" stop-color="#953E15"/>
<stop offset="0.83" stop-color="#863713"/>
<stop offset="0.91" stop-color="#783012"/>
<stop offset="0.95" stop-color="#722D12"/>
<stop offset="1" stop-color="#6D2B11"/>
</radialGradient>
<radialGradient id="paint3_radial_2_203" cx="0" cy="0" r="1" gradientUnits="userSpaceOnUse" gradientTransform="translate(88.9064 187.417) rotate(8.00011) scale(32.2947 32.2947)">
<stop offset="0.58" stop-color="#BC5118"/>
<stop offset="0.67" stop-color="#A94716"/>
<stop offset="0.75" stop-color="#953E15"/>
<stop offset="0.83" stop-color="#863713"/>
<stop offset="0.91" stop-color="#783012"/>
<stop offset="0.95" stop-color="#722D12"/>
<stop offset="1" stop-color="#6D2B11"/>
</radialGradient>
<radialGradient id="paint4_radial_2_203" cx="0" cy="0" r="1" gradientUnits="userSpaceOnUse" gradientTransform="translate(87.4484 161.129) rotate(8.00011) scale(35.7546)">
<stop offset="0.58" stop-color="#BC5118"/>
<stop offset="0.67" stop-color="#A94716"/>
<stop offset="0.75" stop-color="#953E15"/>
<stop offset="0.83" stop-color="#863713"/>
<stop offset="0.91" stop-color="#783012"/>
<stop offset="0.95" stop-color="#722D12"/>
<stop offset="1" stop-color="#6D2B11"/>
</radialGradient>
<radialGradient id="paint5_radial_2_203" cx="0" cy="0" r="1" gradientUnits="userSpaceOnUse" gradientTransform="translate(90.6041 139.177) rotate(8.00011) scale(31.2563 31.2563)">
<stop offset="0.58" stop-color="#BC5118"/>
<stop offset="0.67" stop-color="#A94716"/>
<stop offset="0.75" stop-color="#953E15"/>
<stop offset="0.83" stop-color="#863713"/>
<stop offset="0.91" stop-color="#783012"/>
<stop offset="0.95" stop-color="#722D12"/>
<stop offset="1" stop-color="#6D2B11"/>
</radialGradient>
<radialGradient id="paint6_radial_2_203" cx="0" cy="0" r="1" gradientUnits="userSpaceOnUse" gradientTransform="translate(154.278 138.314) rotate(8.00011) scale(41.9969 41.9969)">
<stop offset="0.7" stop-color="#6D2B11"/>
<stop offset="0.73" stop-color="#6A2A11" stop-opacity="0.882"/>
<stop offset="0.77" stop-color="#662810" stop-opacity="0.764"/>
<stop offset="0.88" stop-color="#5C2410" stop-opacity="0.382"/>
<stop offset="1" stop-color="#51200F" stop-opacity="0"/>
</radialGradient>
<radialGradient id="paint7_radial_2_203" cx="0" cy="0" r="1" gradientUnits="userSpaceOnUse" gradientTransform="translate(210.707 138.384) rotate(8.00011) scale(109.157 109.157)">
<stop offset="0.7" stop-color="#BC5118"/>
<stop offset="0.71" stop-color="#B95018"/>
<stop offset="0.72" stop-color="#B74E18"/>
<stop offset="0.81" stop-color="#9D4215"/>
<stop offset="0.91" stop-color="#823513"/>
<stop offset="0.95" stop-color="#783012"/>
<stop offset="1" stop-color="#6D2B11"/>
</radialGradient>
<radialGradient id="paint8_radial_2_203" cx="0" cy="0" r="1" gradientUnits="userSpaceOnUse" gradientTransform="translate(160.788 104.402) rotate(8.00006) scale(9.71084 9.71085)">
<stop offset="0.43" stop-color="#E4EBE4"/>
<stop offset="0.71" stop-color="#DDE5DD" stop-opacity="0.5"/>
<stop offset="1" stop-color="#D5E0D5" stop-opacity="0"/>
</radialGradient>
<radialGradient id="paint9_radial_2_203" cx="0" cy="0" r="1" gradientUnits="userSpaceOnUse" gradientTransform="translate(160.961 104.427) rotate(8.00006) scale(19.1432 19.1432)">
<stop offset="0.43" stop-color="#E4EBE4"/>
<stop offset="0.71" stop-color="#DDE5DD" stop-opacity="0.5"/>
<stop offset="1" stop-color="#D5E0D5" stop-opacity="0"/>
</radialGradient>
<linearGradient id="paint10_linear_2_203" x1="213.154" y1="185.304" x2="217.845" y2="126.394" gradientUnits="userSpaceOnUse">
<stop stop-color="#126B00"/>
<stop offset="0.05" stop-color="#126E00"/>
<stop offset="0.09" stop-color="#127100"/>
<stop offset="0.51" stop-color="#138D00"/>
<stop offset="0.94" stop-color="#14A800"/>
</linearGradient>
</defs>
</svg>
